<svg width="18" height="19" viewBox="0 0 18 19" fill="none" xmlns="http://www.w3.org/2000/svg">
<path d="M13.5 2C13.8978 2 14.2794 2.15804 14.5607 2.43934C14.842 2.72064 15 3.10218 15 3.5V15.5C15 15.8978 14.842 16.2794 14.5607 16.5607C14.2794 16.842 13.8978 17 13.5 17H4.5C4.10218 17 3.72064 16.842 3.43934 16.5607C3.15804 16.2794 3 15.8978 3 15.5V3.5C3 3.10218 3.15804 2.72064 3.43934 2.43934C3.72064 2.15804 4.10218 2 4.5 2H13.5ZM13.5 3.5H9.75V7.25L7.875 5.525L6 7.25V3.5H4.5V15.5H13.5M9.75 8.75C10.0467 8.75 10.3367 8.83797 10.5834 9.0028C10.83 9.16762 11.0223 9.40189 11.1358 9.67597C11.2494 9.95006 11.2791 10.2517 11.2212 10.5426C11.1633 10.8336 11.0204 11.1009 10.8107 11.3107C10.6009 11.5204 10.3336 11.6633 10.0426 11.7212C9.75166 11.7791 9.45006 11.7494 9.17597 11.6358C8.90189 11.5223 8.66762 11.33 8.5028 11.0834C8.33797 10.8367 8.25 10.5467 8.25 10.25C8.25 9.85218 8.40804 9.47064 8.68934 9.18934C8.97064 8.90804 9.35218 8.75 9.75 8.75ZM12.75 14.75H6.75V14C6.75 13.0025 8.7525 12.5 9.75 12.5C10.7475 12.5 12.75 13.0025 12.75 14V14.75Z" fill="#37CBED"/>
</svg>
