<svg width="16" height="16" viewBox="0 0 16 16" fill="none" xmlns="http://www.w3.org/2000/svg">
<path d="M14.6668 8.00065C14.6668 7.82384 14.5966 7.65427 14.4716 7.52925C14.3465 7.40422 14.177 7.33398 14.0002 7.33398C13.8234 7.33398 13.6538 7.40422 13.5288 7.52925C13.4037 7.65427 13.3335 7.82384 13.3335 8.00065H14.6668ZM8.00016 2.66732C8.17697 2.66732 8.34654 2.59708 8.47157 2.47206C8.59659 2.34703 8.66683 2.17746 8.66683 2.00065C8.66683 1.82384 8.59659 1.65427 8.47157 1.52925C8.34654 1.40422 8.17697 1.33398 8.00016 1.33398V2.66732ZM13.0002 13.334H3.00016V14.6673H13.0002V13.334ZM2.66683 13.0007V3.00065H1.3335V13.0007H2.66683ZM13.3335 8.00065V13.0007H14.6668V8.00065H13.3335ZM3.00016 2.66732H8.00016V1.33398H3.00016V2.66732ZM3.00016 13.334C2.91176 13.334 2.82697 13.2989 2.76446 13.2364C2.70195 13.1738 2.66683 13.0891 2.66683 13.0007H1.3335C1.3335 13.4427 1.50909 13.8666 1.82165 14.1792C2.13421 14.4917 2.55814 14.6673 3.00016 14.6673V13.334ZM13.0002 14.6673C13.4422 14.6673 13.8661 14.4917 14.1787 14.1792C14.4912 13.8666 14.6668 13.4427 14.6668 13.0007H13.3335C13.3335 13.0891 13.2984 13.1738 13.2359 13.2364C13.1734 13.2989 13.0886 13.334 13.0002 13.334V14.6673ZM2.66683 3.00065C2.66683 2.91225 2.70195 2.82746 2.76446 2.76495C2.82697 2.70244 2.91176 2.66732 3.00016 2.66732V1.33398C2.55814 1.33398 2.13421 1.50958 1.82165 1.82214C1.50909 2.1347 1.3335 2.55862 1.3335 3.00065H2.66683Z" fill="#4E515A"/>
<path d="M2 11.6667L5.56433 8.39933C5.68447 8.28923 5.84078 8.22694 6.00372 8.22423C6.16666 8.22153 6.32494 8.2786 6.44867 8.38467L10.6667 12M9.33333 10.3333L10.9243 8.74233C11.0378 8.62878 11.1885 8.55999 11.3486 8.5486C11.5087 8.53721 11.6676 8.58398 11.796 8.68033L14 10.3333M10 4H14M12 2V6" stroke="#4E515A" stroke-width="1.33333" stroke-linecap="round" stroke-linejoin="round"/>
</svg>
