<svg width="32" height="32" viewBox="0 0 32 32" fill="none" xmlns="http://www.w3.org/2000/svg">
<rect width="32" height="32" rx="16" fill="url(#paint0_linear_2175_4475)"/>
<path d="M10.0003 16C9.26699 16 8.66699 15.4 8.66699 14.6667V11.3333C8.66699 10.6 9.26699 10 10.0003 10H15.3337C16.067 10 16.667 10.6 16.667 11.3333V14.6667C16.667 15.4 16.067 16 15.3337 16H14.0003V18L12.0003 16H10.0003ZM22.0003 20C22.7337 20 23.3337 19.4 23.3337 18.6667V15.3333C23.3337 14.6 22.7337 14 22.0003 14H18.0003V14.6667C18.0003 16.1333 16.8003 17.3333 15.3337 17.3333V18.6667C15.3337 19.4 15.9337 20 16.667 20H18.0003V22L20.0003 20H22.0003Z" fill="#EBFCFF"/>
<defs>
<linearGradient id="paint0_linear_2175_4475" x1="11.2787" y1="16" x2="85.4763" y2="24.9561" gradientUnits="userSpaceOnUse">
<stop stop-color="#09ADEA"/>
<stop offset="0.990459" stop-color="#2939EE"/>
</linearGradient>
</defs>
</svg>
