<svg width="16" height="16" viewBox="0 0 16 16" fill="none" xmlns="http://www.w3.org/2000/svg">
<path d="M5.6 10.872L8 8.472L10.4 10.872L10.872 10.4L8.472 8L10.872 5.6L10.4 5.128L8 7.528L5.6 5.128L5.128 5.6L7.528 8L5.128 10.4L5.6 10.872ZM8.002 14C7.17267 14 6.39267 13.8427 5.662 13.528C4.93178 13.2129 4.29644 12.7853 3.756 12.2453C3.21556 11.7053 2.78778 11.0707 2.47267 10.3413C2.15756 9.612 2 8.83222 2 8.002C2 7.17178 2.15733 6.39178 2.472 5.662C2.78667 4.93222 3.21422 4.29689 3.75467 3.756C4.29511 3.21511 4.92978 2.78733 5.65867 2.47267C6.38756 2.158 7.16733 2.00045 7.998 2C8.82867 1.99956 9.60867 2.15689 10.338 2.472C11.0673 2.78711 11.7027 3.21467 12.244 3.75467C12.7853 4.29467 13.2131 4.92933 13.5273 5.65867C13.8416 6.388 13.9991 7.16778 14 7.998C14.0009 8.82822 13.8436 9.60822 13.528 10.338C13.2124 11.0678 12.7849 11.7031 12.2453 12.244C11.7058 12.7849 11.0711 13.2127 10.3413 13.5273C9.61156 13.842 8.83178 13.9996 8.002 14Z" fill="#0A042B"/>
</svg>
