<svg width="16" height="16" viewBox="0 0 16 16" fill="none" xmlns="http://www.w3.org/2000/svg">
<path d="M6.66675 3.50065V3.66732H9.33342V3.50065C9.33342 3.14703 9.19294 2.80789 8.94289 2.55784C8.69284 2.30779 8.3537 2.16732 8.00008 2.16732C7.64646 2.16732 7.30732 2.30779 7.05727 2.55784C6.80722 2.80789 6.66675 3.14703 6.66675 3.50065ZM5.83342 3.66732V3.50065C5.83342 2.92602 6.06169 2.37492 6.46802 1.96859C6.87435 1.56226 7.42545 1.33398 8.00008 1.33398C8.57472 1.33398 9.12582 1.56226 9.53215 1.96859C9.93847 2.37492 10.1667 2.92602 10.1667 3.50065V3.66732H13.9167C14.0273 3.66732 14.1332 3.71122 14.2114 3.78936C14.2895 3.8675 14.3334 3.97348 14.3334 4.08398C14.3334 4.19449 14.2895 4.30047 14.2114 4.37861C14.1332 4.45675 14.0273 4.50065 13.9167 4.50065H12.9444L12.2777 12.4527C12.2271 13.0565 11.9514 13.6193 11.5054 14.0295C11.0593 14.4397 10.4754 14.6673 9.86942 14.6673H6.13075C5.52481 14.6673 4.94101 14.4396 4.49502 14.0294C4.04902 13.6192 3.7734 13.0565 3.72275 12.4527L3.05608 4.50065H2.08341C1.97291 4.50065 1.86693 4.45675 1.78879 4.37861C1.71065 4.30047 1.66675 4.19449 1.66675 4.08398C1.66675 3.97348 1.71065 3.8675 1.78879 3.78936C1.86693 3.71122 1.97291 3.66732 2.08341 3.66732H5.83342ZM7.16675 6.75065C7.16675 6.69593 7.15597 6.64175 7.13503 6.5912C7.11409 6.54065 7.0834 6.49471 7.04471 6.45602C7.00602 6.41733 6.96008 6.38664 6.90953 6.3657C6.85898 6.34476 6.8048 6.33398 6.75008 6.33398C6.69536 6.33398 6.64118 6.34476 6.59063 6.3657C6.54008 6.38664 6.49414 6.41733 6.45545 6.45602C6.41676 6.49471 6.38607 6.54065 6.36513 6.5912C6.34419 6.64175 6.33342 6.69593 6.33342 6.75065V11.584C6.33342 11.6387 6.34419 11.6929 6.36513 11.7434C6.38607 11.794 6.41676 11.8399 6.45545 11.8786C6.49414 11.9173 6.54008 11.948 6.59063 11.9689C6.64118 11.9899 6.69536 12.0007 6.75008 12.0007C6.8048 12.0007 6.85898 11.9899 6.90953 11.9689C6.96008 11.948 7.00602 11.9173 7.04471 11.8786C7.0834 11.8399 7.11409 11.794 7.13503 11.7434C7.15597 11.6929 7.16675 11.6387 7.16675 11.584V6.75065ZM9.25008 6.33398C9.02008 6.33398 8.83342 6.52065 8.83342 6.75065V11.584C8.83342 11.6945 8.87731 11.8005 8.95545 11.8786C9.03359 11.9568 9.13957 12.0007 9.25008 12.0007C9.36059 12.0007 9.46657 11.9568 9.54471 11.8786C9.62285 11.8005 9.66675 11.6945 9.66675 11.584V6.75065C9.66675 6.52065 9.48008 6.33398 9.25008 6.33398Z" fill="#0A042B"/>
</svg>
