<svg width="24" height="24" viewBox="0 0 24 24" fill="none" xmlns="http://www.w3.org/2000/svg">
<path d="M12.0001 3C10.4387 2.99947 8.90398 3.40519 7.5468 4.17727C6.18962 4.94936 5.05666 6.06125 4.25924 7.4037C3.46182 8.74615 3.02738 10.273 2.9986 11.8341C2.96982 13.3953 3.3477 14.9371 4.0951 16.308L3.0301 20.043C2.99263 20.1742 2.99163 20.313 3.02721 20.4447C3.0628 20.5764 3.13362 20.6959 3.23205 20.7903C3.33049 20.8847 3.45281 20.9505 3.58585 20.9806C3.71889 21.0107 3.85762 21.0039 3.9871 20.961L7.4941 19.7925C8.68939 20.4832 10.0276 20.8897 11.4051 20.9805C12.7826 21.0713 14.1625 20.844 15.4382 20.3162C16.7138 19.7884 17.8509 18.9742 18.7615 17.9366C19.6721 16.899 20.3318 15.6658 20.6896 14.3325C21.0474 12.9992 21.0936 11.6014 20.8248 10.2473C20.5559 8.89323 19.9792 7.61914 19.1392 6.52362C18.2992 5.4281 17.2184 4.54051 15.9804 3.9295C14.7425 3.3185 13.3806 3.00046 12.0001 3ZM9.0001 10.5C9.0001 10.3011 9.07912 10.1103 9.21977 9.96967C9.36042 9.82902 9.55119 9.75 9.7501 9.75H14.2501C14.449 9.75 14.6398 9.82902 14.7804 9.96967C14.9211 10.1103 15.0001 10.3011 15.0001 10.5C15.0001 10.6989 14.9211 10.8897 14.7804 11.0303C14.6398 11.171 14.449 11.25 14.2501 11.25H9.7501C9.55119 11.25 9.36042 11.171 9.21977 11.0303C9.07912 10.8897 9.0001 10.6989 9.0001 10.5ZM9.7501 12.75H12.7501C12.949 12.75 13.1398 12.829 13.2804 12.9697C13.4211 13.1103 13.5001 13.3011 13.5001 13.5C13.5001 13.6989 13.4211 13.8897 13.2804 14.0303C13.1398 14.171 12.949 14.25 12.7501 14.25H9.7501C9.55119 14.25 9.36042 14.171 9.21977 14.0303C9.07912 13.8897 9.0001 13.6989 9.0001 13.5C9.0001 13.3011 9.07912 13.1103 9.21977 12.9697C9.36042 12.829 9.55119 12.75 9.7501 12.75Z" fill="#0A042B"/>
</svg>
