<svg width="16" height="16" viewBox="0 0 16 16" fill="none" xmlns="http://www.w3.org/2000/svg">
<path d="M6.66699 3.50065V3.66732H9.33366V3.50065C9.33366 3.14703 9.19318 2.80789 8.94313 2.55784C8.69309 2.30779 8.35395 2.16732 8.00033 2.16732C7.6467 2.16732 7.30757 2.30779 7.05752 2.55784C6.80747 2.80789 6.66699 3.14703 6.66699 3.50065ZM5.83366 3.66732V3.50065C5.83366 2.92602 6.06193 2.37492 6.46826 1.96859C6.87459 1.56226 7.42569 1.33398 8.00033 1.33398C8.57496 1.33398 9.12606 1.56226 9.53239 1.96859C9.93872 2.37492 10.167 2.92602 10.167 3.50065V3.66732H13.917C14.0275 3.66732 14.1335 3.71122 14.2116 3.78936C14.2898 3.8675 14.3337 3.97348 14.3337 4.08398C14.3337 4.19449 14.2898 4.30047 14.2116 4.37861C14.1335 4.45675 14.0275 4.50065 13.917 4.50065H12.9447L12.278 12.4527C12.2273 13.0565 11.9517 13.6193 11.5056 14.0295C11.0595 14.4397 10.4757 14.6673 9.86966 14.6673H6.13099C5.52506 14.6673 4.94125 14.4396 4.49526 14.0294C4.04927 13.6192 3.77364 13.0565 3.72299 12.4527L3.05633 4.50065H2.08366C1.97315 4.50065 1.86717 4.45675 1.78903 4.37861C1.71089 4.30047 1.66699 4.19449 1.66699 4.08398C1.66699 3.97348 1.71089 3.8675 1.78903 3.78936C1.86717 3.71122 1.97315 3.66732 2.08366 3.66732H5.83366ZM7.16699 6.75065C7.16699 6.69593 7.15622 6.64175 7.13528 6.5912C7.11434 6.54065 7.08364 6.49471 7.04495 6.45602C7.00626 6.41733 6.96033 6.38664 6.90978 6.3657C6.85922 6.34476 6.80504 6.33398 6.75033 6.33398C6.69561 6.33398 6.64143 6.34476 6.59087 6.3657C6.54032 6.38664 6.49439 6.41733 6.4557 6.45602C6.41701 6.49471 6.38632 6.54065 6.36538 6.5912C6.34444 6.64175 6.33366 6.69593 6.33366 6.75065V11.584C6.33366 11.6387 6.34444 11.6929 6.36538 11.7434C6.38632 11.794 6.41701 11.8399 6.4557 11.8786C6.49439 11.9173 6.54032 11.948 6.59087 11.9689C6.64143 11.9899 6.69561 12.0007 6.75033 12.0007C6.80504 12.0007 6.85922 11.9899 6.90978 11.9689C6.96033 11.948 7.00626 11.9173 7.04495 11.8786C7.08364 11.8399 7.11434 11.794 7.13528 11.7434C7.15622 11.6929 7.16699 11.6387 7.16699 11.584V6.75065ZM9.25033 6.33398C9.02033 6.33398 8.83366 6.52065 8.83366 6.75065V11.584C8.83366 11.6945 8.87756 11.8005 8.9557 11.8786C9.03384 11.9568 9.13982 12.0007 9.25033 12.0007C9.36083 12.0007 9.46681 11.9568 9.54495 11.8786C9.62309 11.8005 9.66699 11.6945 9.66699 11.584V6.75065C9.66699 6.52065 9.48033 6.33398 9.25033 6.33398Z" fill="#E67470"/>
</svg>
