<svg width="16" height="14" viewBox="0 0 16 14" fill="none" xmlns="http://www.w3.org/2000/svg">
<path d="M8.00039 13.1664C7.16706 13.1664 6.38661 13.0082 5.65906 12.6917C4.9315 12.3753 4.29817 11.9475 3.75906 11.4084C3.21995 10.8693 2.79217 10.236 2.47572 9.50841C2.15928 8.78085 2.00084 8.00018 2.00039 7.16641C1.99995 6.33263 2.15839 5.55218 2.47572 4.82507C2.79306 4.09796 3.22061 3.46463 3.75839 2.92507C4.29617 2.38552 4.9295 1.95774 5.65839 1.64174C6.38728 1.32574 7.16795 1.1673 8.00039 1.16641C8.83284 1.16552 9.6135 1.32396 10.3424 1.64174C11.0713 1.95952 11.7046 2.3873 12.2424 2.92507C12.7802 3.46285 13.2079 4.09618 13.5257 4.82507C13.8435 5.55396 14.0017 6.33441 14.0004 7.16641C13.9991 7.99841 13.8408 8.77907 13.5257 9.50841C13.2106 10.2377 12.7828 10.8711 12.2424 11.4084C11.7019 11.9457 11.0686 12.3735 10.3424 12.6917C9.61617 13.01 8.8355 13.1682 8.00039 13.1664ZM9.86706 9.96641L10.8004 9.03307L8.66706 6.89974V3.83307H7.33372V7.43307L9.86706 9.96641ZM3.73372 0.0664062L4.66706 0.99974L1.83372 3.83307L0.900391 2.89974L3.73372 0.0664062ZM12.2671 0.0664062L15.1004 2.89974L14.1671 3.83307L11.3337 0.99974L12.2671 0.0664062Z" fill="#31333A"/>
</svg>
