<svg width="12" height="14" viewBox="0 0 12 14" fill="none" xmlns="http://www.w3.org/2000/svg">
<path d="M10.6667 12.166H1.33333V4.83268H10.6667M8.66667 0.166016V1.49935H3.33333V0.166016H2V1.49935H1.33333C0.593333 1.49935 0 2.09268 0 2.83268V12.166C0 12.5196 0.140476 12.8588 0.390524 13.1088C0.640573 13.3589 0.979711 13.4993 1.33333 13.4993H10.6667C11.0203 13.4993 11.3594 13.3589 11.6095 13.1088C11.8595 12.8588 12 12.5196 12 12.166V2.83268C12 2.47906 11.8595 2.13992 11.6095 1.88987C11.3594 1.63982 11.0203 1.49935 10.6667 1.49935H10V0.166016M9.33333 7.49935H6V10.8327H9.33333V7.49935Z" fill="#31333A"/>
</svg>
