<svg width="24" height="24" viewBox="0 0 24 24" fill="none" xmlns="http://www.w3.org/2000/svg">
<rect width="24" height="24" rx="12" fill="#37CBED"/>
<path d="M8 16V14.1111L13.8667 8.25556C13.9556 8.17407 14.0538 8.11111 14.1613 8.06667C14.2689 8.02222 14.3818 8 14.5 8C14.6182 8 14.733 8.02222 14.8444 8.06667C14.9559 8.11111 15.0521 8.17778 15.1333 8.26667L15.7444 8.88889C15.8333 8.97037 15.8982 9.06667 15.9391 9.17778C15.98 9.28889 16.0003 9.4 16 9.51111C16 9.62963 15.9797 9.74267 15.9391 9.85022C15.8985 9.95778 15.8336 10.0559 15.7444 10.1444L9.88889 16H8ZM14.4889 10.1333L15.1111 9.51111L14.4889 8.88889L13.8667 9.51111L14.4889 10.1333Z" fill="white"/>
</svg>
