<svg width="32" height="32" viewBox="0 0 32 32" fill="none" xmlns="http://www.w3.org/2000/svg">
<rect width="32" height="32" rx="16" fill="url(#paint0_linear_2175_4482)"/>
<path d="M20.0203 19.0787L22.8757 21.9333L21.9323 22.8767L19.0777 20.0213C18.0155 20.8728 16.6943 21.3359 15.333 21.334C12.021 21.334 9.33301 18.646 9.33301 15.334C9.33301 12.022 12.021 9.33398 15.333 9.33398C18.645 9.33398 21.333 12.022 21.333 15.334C21.3349 16.6953 20.8718 18.0165 20.0203 19.0787ZM16.1183 12.7853C15.5493 12.6101 14.9379 12.6304 14.3817 12.843C13.8255 13.0556 13.3564 13.4482 13.0493 13.9583C12.7421 14.4684 12.6145 15.0666 12.6868 15.6576C12.759 16.2487 13.0271 16.7985 13.4481 17.2196C13.8691 17.6406 14.419 17.9086 15.01 17.9809C15.6011 18.0532 16.1993 17.9256 16.7094 17.6184C17.2195 17.3112 17.6121 16.8422 17.8247 16.286C18.0372 15.7297 18.0575 15.1184 17.8823 14.5493C17.7934 14.7458 17.6582 14.9178 17.4882 15.0505C17.3183 15.1832 17.1186 15.2727 16.9065 15.3114C16.6943 15.35 16.4759 15.3366 16.2701 15.2723C16.0643 15.208 15.8771 15.0947 15.7246 14.9422C15.5722 14.7897 15.459 14.6025 15.3948 14.3966C15.3305 14.1908 15.3172 13.9724 15.3559 13.7602C15.3946 13.5481 15.4842 13.3485 15.617 13.1786C15.7498 13.0087 15.9218 12.8742 16.1183 12.7853Z" fill="#EBFCFF"/>
<defs>
<linearGradient id="paint0_linear_2175_4482" x1="11.2787" y1="16" x2="85.4763" y2="24.9561" gradientUnits="userSpaceOnUse">
<stop stop-color="#09ADEA"/>
<stop offset="0.990459" stop-color="#2939EE"/>
</linearGradient>
</defs>
</svg>
