<svg width="188" height="94" viewBox="0 0 188 94" fill="none" xmlns="http://www.w3.org/2000/svg">
<g clip-path="url(#clip0_1786_4185)">
<path d="M51.5573 76.22C56.6339 76.22 60.7493 72.1046 60.7493 67.028C60.7493 61.9514 56.6339 57.8359 51.5573 57.8359C46.4807 57.8359 42.3652 61.9514 42.3652 67.028C42.3652 72.1046 46.4807 76.22 51.5573 76.22Z" fill="#E4E4E4"/>
<path opacity="0.2" d="M44.7701 60.8887C43.9127 62.8943 43.7964 65.1395 44.4419 67.223C45.0875 69.3065 46.4529 71.0926 48.2941 72.262C50.1353 73.4315 52.3324 73.9082 54.4927 73.6069C56.653 73.3056 58.6358 72.2459 60.0868 70.6173C59.563 71.8426 58.7791 72.9395 57.7893 73.8318C56.7996 74.7241 55.6276 75.3906 54.3547 75.785C53.0819 76.1795 51.7384 76.2924 50.4175 76.1161C49.0966 75.9398 47.8299 75.4784 46.705 74.764C45.5801 74.0495 44.624 73.099 43.9029 71.9783C43.1819 70.8576 42.7131 69.5936 42.529 68.2737C42.345 66.9539 42.4501 65.6098 42.837 64.3346C43.224 63.0595 43.8836 61.8836 44.7701 60.8887Z" fill="black"/>
<path d="M51.5825 67.0273H51.6076L52.0622 93.0882H51.1025L51.5825 67.0273Z" fill="#0A042B"/>
<path d="M32.9589 59.0774C43.1943 59.0774 51.4917 50.78 51.4917 40.5446C51.4917 30.3092 43.1943 22.0117 32.9589 22.0117C22.7235 22.0117 14.426 30.3092 14.426 40.5446C14.426 50.78 22.7235 59.0774 32.9589 59.0774Z" fill="#E4E4E4"/>
<path opacity="0.2" d="M19.2749 28.166C17.5462 32.2097 17.3117 36.7364 18.6133 40.9371C19.9149 45.1378 22.6678 48.7389 26.38 51.0967C30.0922 53.4546 34.5219 54.4157 38.8775 53.8082C43.233 53.2007 47.2307 51.0643 50.1561 47.7806C49.1001 50.2512 47.5196 52.4626 45.524 54.2617C43.5285 56.0608 41.1657 57.4045 38.5993 58.1998C36.0329 58.995 33.3243 59.2228 30.6611 58.8674C27.998 58.5119 25.4439 57.5817 23.176 56.1411C20.908 54.7006 18.9803 52.7842 17.5265 50.5247C16.0727 48.2652 15.1276 45.7167 14.7565 43.0557C14.3854 40.3946 14.5973 37.6847 15.3775 35.1137C16.1577 32.5427 17.4876 30.1721 19.2749 28.166Z" fill="black"/>
<path d="M33.0098 40.5449H33.0608L33.9773 93.0886H32.0425L33.0098 40.5449Z" fill="#0A042B"/>
<path d="M155.146 65.8926H70.2V91.0743H155.146V65.8926Z" fill="#F0F0F0"/>
<path d="M117.626 71.0977H107.721V91.0752H117.626V71.0977Z" fill="#CACACA"/>
<path d="M150.194 36.1777H75.1523V59.3449H150.194V36.1777Z" fill="#F0F0F0"/>
<path d="M157.802 37.6048H67.5445C67.3938 37.6048 67.2466 37.5597 67.1217 37.4754C66.9968 37.391 66.9 37.2713 66.8437 37.1315C66.7875 36.9917 66.7743 36.8383 66.8058 36.691C66.8374 36.5436 66.9124 36.4091 67.021 36.3047L91.6884 12.5942V2.26636C91.6886 2.06607 91.7683 1.87405 91.9099 1.73242C92.0516 1.5908 92.2436 1.51113 92.4439 1.51091H97.3123C97.5126 1.51113 97.7047 1.59079 97.8463 1.73242C97.9879 1.87405 98.0676 2.06607 98.0678 2.26636V6.46234L99.931 4.67142C102.98 1.74074 107.025 0.0726308 111.253 0.00231646C115.482 -0.0679979 119.58 1.46469 122.725 4.29238L158.307 36.2875C158.421 36.3897 158.501 36.5239 158.536 36.6725C158.572 36.8211 158.562 36.977 158.507 37.1197C158.453 37.2624 158.356 37.3852 158.23 37.4718C158.104 37.5584 157.955 37.6047 157.802 37.6048Z" fill="#CACACA"/>
<path d="M94.962 42.0527C95.5903 42.0527 96.2125 42.1765 96.793 42.4169C97.3735 42.6574 97.9009 43.0098 98.3452 43.4541C98.7895 43.8984 99.1419 44.4258 99.3823 45.0063C99.6228 45.5868 99.7465 46.2089 99.7465 46.8373V53.3006H90.1775V46.8373C90.1775 46.2089 90.3012 45.5868 90.5417 45.0063C90.7821 44.4258 91.1346 43.8984 91.5788 43.4541C92.0231 43.0098 92.5506 42.6574 93.1311 42.4169C93.7115 42.1765 94.3337 42.0527 94.962 42.0527Z" fill="white"/>
<path d="M112.673 42.1367C113.942 42.1367 115.159 42.6408 116.056 43.5381C116.954 44.4353 117.458 45.6523 117.458 46.9212V53.3846H107.889V46.9212C107.889 45.6523 108.393 44.4353 109.29 43.5381C110.187 42.6408 111.404 42.1367 112.673 42.1367Z" fill="white"/>
<path d="M130.384 42.2207C131.653 42.2207 132.87 42.7248 133.768 43.6221C134.665 44.5193 135.169 45.7363 135.169 47.0052V53.4686H125.6V47.0052C125.6 45.7363 126.104 44.5193 127.001 43.6221C127.898 42.7248 129.115 42.2207 130.384 42.2207Z" fill="white"/>
<path d="M137.435 70.8438C138.704 70.8438 139.921 71.3478 140.818 72.2451C141.716 73.1424 142.22 74.3593 142.22 75.6283V82.0916H132.651V75.6283C132.651 74.3593 133.155 73.1424 134.052 72.2451C134.949 71.3478 136.166 70.8438 137.435 70.8438Z" fill="white"/>
<path d="M90.0936 70.8438C91.3626 70.8438 92.5795 71.3478 93.4768 72.2451C94.3741 73.1424 94.8782 74.3593 94.8782 75.6283V82.0916H85.3091V75.6283C85.3091 75 85.4328 74.3778 85.6733 73.7973C85.9137 73.2168 86.2662 72.6894 86.7104 72.2451C87.1547 71.8008 87.6822 71.4484 88.2627 71.2079C88.8431 70.9675 89.4653 70.8437 90.0936 70.8438Z" fill="white"/>
<path d="M167.557 66.286L151.622 59.2352C151.536 59.1973 151.444 59.1777 151.35 59.1777H75.4064C75.3197 59.1777 75.2338 59.1945 75.1535 59.2272L57.8083 66.2781C57.664 66.3367 57.5446 66.4437 57.4705 66.5807C57.3964 66.7176 57.3722 66.8761 57.4021 67.029C57.432 67.1818 57.5141 67.3195 57.6343 67.4185C57.7545 67.5175 57.9054 67.5716 58.0612 67.5716H62.5614V90.7389H62.0578V93.0892H163.288V90.7389H162.449V67.5716H167.285C167.439 67.5716 167.588 67.5187 167.708 67.4217C167.827 67.3248 167.91 67.1896 167.942 67.039C167.974 66.8883 167.953 66.7313 167.883 66.5942C167.813 66.4572 167.697 66.3483 167.557 66.286ZM161.106 90.7389H63.9044V67.5716H161.106V90.7389Z" fill="#CACACA"/>
<path d="M100.922 52.3789H88.6667V54.3934H100.922V52.3789Z" fill="#CACACA"/>
<path d="M118.885 52.3789H106.63V54.3934H118.885V52.3789Z" fill="#CACACA"/>
<path d="M136.848 52.3789H124.593V54.3934H136.848V52.3789Z" fill="#CACACA"/>
<path d="M143.563 81.4199H131.308V83.4345H143.563V81.4199Z" fill="#CACACA"/>
<path d="M96.0532 81.4199H83.7981V83.4345H96.0532V81.4199Z" fill="#CACACA"/>
<path d="M187.294 93.1927H0.705721C0.65116 93.1927 0.598834 93.171 0.560254 93.1324C0.521674 93.0939 0.5 93.0415 0.5 92.987C0.5 92.9324 0.521674 92.8801 0.560254 92.8415C0.598834 92.8029 0.65116 92.7812 0.705721 92.7812H187.294C187.349 92.7812 187.401 92.8029 187.44 92.8415C187.478 92.8801 187.5 92.9324 187.5 92.987C187.5 93.0415 187.478 93.0939 187.44 93.1324C187.401 93.171 187.349 93.1927 187.294 93.1927Z" fill="#0A042B"/>
<path d="M140.362 35.8321C140.362 35.9637 140.36 36.0974 140.358 36.2291C140.356 36.3875 140.352 36.5439 140.346 36.7023C140.34 36.8401 140.334 36.9759 140.325 37.1116C140.301 37.5663 140.262 38.0189 140.208 38.4735C140.196 38.5887 140.181 38.7019 140.165 38.8171C140.153 38.9055 140.14 38.9961 140.126 39.0866C140.111 39.1874 140.097 39.2882 140.081 39.389C140.048 39.6029 140.011 39.8169 139.969 40.0308C139.949 40.1378 139.928 40.2448 139.906 40.3517C139.863 40.5636 139.815 40.7776 139.766 40.9895C139.762 41.006 139.758 41.0245 139.754 41.0409C139.729 41.1458 139.704 41.2487 139.677 41.3536C139.669 41.3845 139.663 41.4133 139.653 41.4441C139.634 41.5223 139.614 41.6005 139.593 41.6786C139.564 41.7877 139.535 41.8946 139.505 42.0037C139.455 42.1724 139.406 42.339 139.354 42.5077C139.348 42.5252 139.343 42.5431 139.338 42.5612C139.239 42.88 139.134 43.1948 139.019 43.5075C138.959 43.6721 138.896 43.8387 138.832 44.0033C138.768 44.1679 138.702 44.3324 138.634 44.495C138.569 44.6534 138.501 44.8118 138.433 44.9681C138.416 45.0051 138.4 45.0422 138.381 45.0792C138.309 45.2417 138.235 45.4001 138.159 45.5585C138.157 45.5606 138.157 45.5647 138.155 45.5668C138.095 45.6943 138.032 45.8219 137.968 45.9473C137.968 45.9512 137.966 45.9548 137.964 45.9576C137.902 46.0811 137.838 46.2045 137.772 46.3259L137.667 46.5254L137.655 46.5481C137.523 46.7929 137.388 47.0356 137.244 47.2763C137.213 47.3298 137.182 47.3833 137.151 47.4347C137.12 47.4882 137.087 47.5417 137.054 47.5931C137.034 47.6301 137.011 47.6672 136.987 47.7042C136.943 47.7741 136.9 47.8461 136.855 47.9161C136.847 47.9305 136.836 47.9449 136.828 47.9593C136.75 48.0807 136.672 48.2 136.594 48.3213C136.497 48.4674 136.398 48.6114 136.297 48.7554L134.063 52.3308L133.967 52.2506L133.94 52.2259H133.938L133.849 52.1519L133.607 51.9461C133.533 52.0181 133.46 52.0901 133.386 52.1601C133.358 52.1889 133.327 52.2156 133.298 52.2444C133.275 52.265 133.255 52.2856 133.232 52.3061C129.37 56.078 124.232 58.2622 118.836 58.4263H118.83C114.745 58.5385 110.701 57.5841 107.097 55.6573C107.017 55.6162 106.939 55.575 106.861 55.5277C106.392 55.2726 105.933 55.0031 105.483 54.7151C105.48 54.713 105.478 54.713 105.476 54.711C104.954 54.3407 104.444 53.9457 103.946 53.526C101.275 51.2748 99.1619 48.4354 97.7724 45.2306C96.3829 42.0258 95.7547 38.5427 95.9371 35.0544C95.9433 34.9166 95.9515 34.7808 95.9617 34.6429C95.9947 34.1451 96.0454 33.6493 96.114 33.1556C96.1325 33.0177 96.1531 32.8799 96.1736 32.7441H140.153C140.239 33.3736 140.299 34.0066 140.332 34.6429C140.352 35.0401 140.362 35.435 140.362 35.8321Z" fill="#F0F0F0"/>
<path d="M140.153 32.7444C139.361 27.4791 136.706 22.6726 132.671 19.1988C128.635 15.725 123.488 13.8145 118.163 13.8145C112.839 13.8145 107.691 15.725 103.655 19.1988C99.6202 22.6726 96.9654 27.4791 96.1736 32.7444C96.153 32.8802 96.1324 33.018 96.1139 33.1559C96.0461 33.6496 95.9953 34.1454 95.9617 34.6432H140.332C140.299 34.0075 140.239 33.3746 140.153 32.7444Z" fill="url(#paint0_linear_1786_4185)"/>
<path d="M119.604 55.6562H106.862V45.4635C107.097 40.8054 111.078 40.4293 114.819 40.6792C115.447 40.6792 116.07 40.8029 116.65 41.0433C117.231 41.2837 117.758 41.6361 118.202 42.0804C118.647 42.5247 118.999 43.0521 119.239 43.6326C119.48 44.2131 119.604 44.8352 119.604 45.4635V55.6562Z" fill="url(#paint1_linear_1786_4185)"/>
<path d="M106.861 48.409V48.4111C106.861 48.4131 106.863 48.4131 106.865 48.4131L106.861 48.409ZM101.736 32.7434C101.728 32.7948 101.718 32.8462 101.71 32.8977C101.718 32.8462 101.728 32.7948 101.738 32.7434H101.736ZM101.481 34.6422C101.475 34.7204 101.469 34.7985 101.465 34.8767C101.469 34.7985 101.475 34.7204 101.483 34.6422C101.483 34.6278 101.484 34.6133 101.485 34.599C101.483 34.6134 101.483 34.6278 101.481 34.6422ZM106.861 48.4111C106.861 48.4131 106.863 48.4131 106.865 48.4131L106.861 48.409V48.4111ZM101.736 32.7434C101.728 32.7948 101.718 32.8462 101.71 32.8977C101.718 32.8462 101.728 32.7948 101.738 32.7434H101.736ZM101.465 34.8767C101.469 34.7985 101.475 34.7204 101.483 34.6422C101.483 34.6278 101.484 34.6133 101.485 34.599C101.483 34.6134 101.483 34.6278 101.481 34.6422C101.475 34.7204 101.469 34.7985 101.465 34.8767ZM165.02 72.7211C164.98 72.6787 164.938 72.6388 164.893 72.6017L164.891 72.5997L154.703 64.0026L154.44 63.7805L153.438 62.9349L153.187 62.723L151.759 61.5175L151.368 61.1883L150.56 60.5054L150.147 60.1556L146.246 56.8662L144.01 54.9797L143.71 54.7267L137.12 49.1661C137.221 49.022 137.32 48.878 137.417 48.732C137.495 48.6106 137.573 48.4913 137.651 48.3699C137.659 48.3555 137.67 48.3411 137.678 48.3267C137.723 48.2568 137.766 48.1848 137.809 48.1148C137.834 48.0778 137.857 48.0408 137.877 48.0037C137.91 47.9523 137.943 47.8988 137.974 47.8453C138.005 47.7939 138.036 47.7404 138.067 47.6869C138.211 47.4462 138.346 47.2035 138.478 46.9587L138.49 46.936L138.595 46.7365C138.661 46.6151 138.725 46.4917 138.787 46.3683C138.789 46.3655 138.791 46.3618 138.791 46.358C138.854 46.2325 138.918 46.1049 138.978 45.9774C138.98 45.9753 138.98 45.9712 138.982 45.9692C139.058 45.8108 139.132 45.6524 139.204 45.4898C139.223 45.4528 139.239 45.4158 139.256 45.3788C139.324 45.2224 139.391 45.064 139.457 44.9056C139.525 44.7431 139.591 44.5785 139.655 44.4139C139.719 44.2494 139.782 44.0827 139.842 43.9181C139.955 43.6034 140.061 43.288 140.161 42.9718C140.165 42.9537 140.171 42.9359 140.177 42.9183C140.229 42.7497 140.278 42.583 140.327 42.4143C140.358 42.3053 140.387 42.1983 140.416 42.0893C140.436 42.0111 140.457 41.9329 140.476 41.8548C140.486 41.8239 140.492 41.7951 140.5 41.7643C140.527 41.6593 140.552 41.5565 140.576 41.4516C140.58 41.4351 140.585 41.4166 140.589 41.4001C140.638 41.1882 140.685 40.9743 140.729 40.7624C140.751 40.6554 140.772 40.5484 140.792 40.4415C140.831 40.2275 140.871 40.0136 140.903 39.7996C140.92 39.6988 140.934 39.598 140.949 39.4972C140.963 39.4067 140.975 39.3162 140.988 39.2277C141.004 39.1125 141.019 38.9994 141.031 38.8842C141.085 38.4295 141.124 37.9769 141.148 37.5223C141.156 37.3865 141.163 37.2507 141.169 37.1129C141.175 36.9545 141.179 36.7982 141.181 36.6397C141.183 36.5081 141.185 36.3744 141.185 36.2427C141.185 35.8457 141.175 35.4507 141.154 35.0536C141.122 34.418 141.062 33.785 140.975 33.1548C140.238 27.768 137.587 22.8263 133.507 19.233C129.426 15.6397 124.189 13.6349 118.752 13.5849C113.316 13.535 108.042 15.4433 103.897 18.961C99.7509 22.4788 97.0095 27.371 96.1736 32.7434C96.1531 32.8792 96.1325 33.017 96.114 33.1548C96.0461 33.6486 95.9954 34.1443 95.9617 34.6422C95.9515 34.78 95.9433 34.9158 95.9371 35.0536C95.7547 38.5419 96.3829 42.0251 97.7724 45.2299C99.1619 48.4347 101.275 51.274 103.946 53.5253C104.444 53.945 104.954 54.3399 105.476 54.7102C105.478 54.7123 105.48 54.7123 105.482 54.7143C105.657 54.8378 105.832 54.9591 106.009 55.0785C106.291 55.2636 106.575 55.4446 106.861 55.6175C106.883 55.6298 106.906 55.6442 106.929 55.6566C107.176 55.8047 107.425 55.9466 107.673 56.0844H107.675C108.602 56.5939 109.564 57.0366 110.554 57.4093C113.457 58.5017 116.554 58.9876 119.653 58.837H119.659C123.275 58.662 126.797 57.6199 129.926 55.7985C130.381 55.5352 130.829 55.2533 131.268 54.953C131.377 54.8789 131.488 54.8028 131.595 54.7267C131.726 54.6341 131.858 54.5374 131.99 54.4407C131.992 54.4407 131.992 54.4387 131.994 54.4387C132.004 54.4305 132.014 54.4229 132.025 54.4161C132.113 54.3481 132.204 54.2803 132.29 54.2144C132.313 54.198 132.335 54.1815 132.358 54.163C132.364 54.1588 132.369 54.154 132.374 54.1486C132.426 54.1116 132.475 54.0704 132.527 54.0313C132.578 53.9922 132.627 53.9511 132.679 53.91C132.687 53.9045 132.696 53.8983 132.703 53.8914C132.761 53.8441 132.819 53.7989 132.876 53.7516C132.936 53.7043 132.993 53.6549 133.049 53.6076C133.107 53.5602 133.162 53.5129 133.22 53.4636C133.269 53.4224 133.321 53.3792 133.37 53.3339C133.386 53.3216 133.401 53.3072 133.417 53.2928C133.424 53.2867 133.431 53.2812 133.438 53.2763C133.506 53.2187 133.572 53.1591 133.637 53.0994C133.654 53.085 133.668 53.0706 133.685 53.0562C133.786 52.9657 133.886 52.8752 133.985 52.7806C134.008 52.76 134.032 52.7373 134.055 52.7168C134.078 52.6962 134.098 52.6756 134.121 52.6551C134.15 52.6263 134.181 52.5995 134.209 52.5707C134.283 52.5008 134.355 52.4288 134.429 52.3568L134.672 52.5625L134.761 52.6366H134.763L134.789 52.6612L134.886 52.7415L136.322 53.9552L136.353 53.9819L136.378 54.0005L136.54 54.1383L136.865 54.414L137.19 54.6876L137.238 54.7267L138.75 56.0022L138.959 56.1791L140.418 57.4093L147.968 63.7805L148.231 64.0026L158.565 72.7211L161.214 74.9573L162.2 75.7884C162.409 75.9654 162.651 76.0994 162.912 76.1828C163.173 76.2662 163.448 76.2973 163.721 76.2744C163.994 76.2514 164.26 76.1749 164.503 76.0492C164.746 75.9234 164.963 75.7509 165.139 75.5415C165.287 75.3677 165.405 75.1702 165.487 74.9573C165.636 74.5797 165.672 74.1666 165.589 73.7691C165.506 73.3717 165.308 73.0073 165.02 72.7211ZM105.429 25.033C107.493 22.5873 110.206 20.7753 113.256 19.8064C116.306 18.8376 119.568 18.7513 122.665 19.5577C125.762 20.364 128.568 22.03 130.758 24.3632C132.948 26.6965 134.433 29.6017 135.043 32.7434C135.069 32.8812 135.094 33.017 135.117 33.1548C135.201 33.6465 135.263 34.1443 135.3 34.6422C135.31 34.78 135.32 34.9158 135.326 35.0536C135.345 35.3622 135.353 35.6728 135.353 35.9814C135.354 37.8533 135.044 39.7123 134.436 41.4824V41.4844C133.755 43.4692 132.711 45.3096 131.356 46.9114C131.327 46.9443 131.298 46.9793 131.268 47.0122C130.996 47.3331 130.71 47.6417 130.416 47.9359C130.414 47.9379 130.412 47.942 130.41 47.9441C130.309 48.0449 130.206 48.1478 130.103 48.2424C129.893 48.4461 129.679 48.6394 129.461 48.8246C129.134 49.1105 128.799 49.3787 128.455 49.6289C128.34 49.7133 128.225 49.7956 128.108 49.8779C127.992 49.9602 127.875 50.0383 127.758 50.1165C127.523 50.2729 127.285 50.423 127.044 50.565C126.925 50.637 126.801 50.7069 126.68 50.7748C126.559 50.8447 126.435 50.9106 126.312 50.9744C126.188 51.0402 126.065 51.1039 125.939 51.1657C125.69 51.2912 125.439 51.4084 125.184 51.5175C125.057 51.5751 124.929 51.6285 124.802 51.6779C124.721 51.7108 124.643 51.7438 124.563 51.7725C124.532 51.787 124.499 51.7994 124.466 51.8096C124.423 51.8281 124.38 51.8446 124.337 51.859C124.323 51.8653 124.308 51.8708 124.294 51.8754C124.205 51.9104 124.119 51.9413 124.028 51.9721C123.899 52.0194 123.769 52.0626 123.637 52.1038C123.506 52.147 123.376 52.1881 123.244 52.2251C123.113 52.2663 122.979 52.3033 122.847 52.3383C122.714 52.3753 122.582 52.4103 122.448 52.4411C122.306 52.4782 122.164 52.5111 122.02 52.5419C121.895 52.5708 121.771 52.5954 121.646 52.6181C121.529 52.6427 121.409 52.6633 121.292 52.6839C121.128 52.7127 120.963 52.7395 120.796 52.7621C120.706 52.7765 120.617 52.7888 120.527 52.797C120.488 52.8032 120.451 52.8073 120.414 52.8115C120.298 52.8279 120.183 52.8403 120.07 52.8505C120.039 52.8526 120.01 52.8567 119.982 52.8588C119.856 52.8711 119.729 52.8814 119.603 52.8917C119.334 52.9102 119.066 52.9225 118.797 52.9287C118.661 52.9308 118.523 52.9328 118.387 52.9328C118.252 52.9328 118.116 52.9308 117.98 52.9267C117.98 52.9267 117.98 52.9287 117.978 52.9267C117.976 52.9287 117.976 52.9287 117.974 52.9267C117.974 52.9269 117.973 52.9272 117.973 52.9273C117.973 52.9275 117.972 52.9275 117.972 52.9275C117.971 52.9275 117.971 52.9275 117.971 52.9273C117.97 52.9272 117.97 52.9269 117.97 52.9267C117.963 52.9287 117.956 52.9287 117.949 52.9267C117.852 52.9267 117.756 52.9225 117.661 52.9164C117.591 52.9143 117.519 52.9123 117.447 52.9061C117.351 52.902 117.254 52.8958 117.157 52.8876C117.126 52.8876 117.095 52.8835 117.065 52.8814C117.05 52.8811 117.036 52.8797 117.021 52.8773C116.923 52.8691 116.822 52.8608 116.723 52.8505C116.674 52.8464 116.622 52.8423 116.573 52.8361C116.423 52.8197 116.273 52.8012 116.124 52.7806C115.956 52.76 115.787 52.7353 115.62 52.7045C115.542 52.6942 115.466 52.6798 115.39 52.6654C115.289 52.6489 115.188 52.6304 115.088 52.6099C114.983 52.5893 114.878 52.5687 114.773 52.544C114.688 52.5255 114.602 52.507 114.518 52.4864C114.477 52.4782 114.435 52.4679 114.396 52.4576C114.18 52.4062 113.966 52.3507 113.754 52.2889C113.621 52.2519 113.487 52.2128 113.355 52.1717C113.174 52.1161 112.995 52.0565 112.816 51.9927C112.746 51.9701 112.679 51.9454 112.609 51.9186C112.539 51.896 112.471 51.8693 112.401 51.8425C112.337 51.8199 112.273 51.7952 112.212 51.7705C112.109 51.7314 112.008 51.6903 111.907 51.6492C111.699 51.5648 111.496 51.4763 111.292 51.3817C111.177 51.3262 111.062 51.2727 110.948 51.2171C110.502 51.0011 110.063 50.7611 109.63 50.4971C109.523 50.4333 109.416 50.3655 109.309 50.2976C109.175 50.2153 109.046 50.1289 108.916 50.0425C108.844 49.9931 108.774 49.9458 108.704 49.8964C108.574 49.8059 108.447 49.7133 108.321 49.6207C108.256 49.5734 108.19 49.524 108.126 49.4747C107.898 49.3018 107.673 49.1208 107.453 48.9357C107.348 48.8472 107.243 48.7567 107.141 48.6641C107.097 48.6271 107.054 48.588 107.011 48.5489C106.962 48.5037 106.912 48.4604 106.865 48.4131L106.861 48.409C106.789 48.3452 106.717 48.2774 106.647 48.2095C106.538 48.1066 106.431 48.0017 106.328 47.8948C106.221 47.7898 106.118 47.6808 106.017 47.5738C105.914 47.4668 105.816 47.3578 105.719 47.2467C105.62 47.1377 105.524 47.0266 105.429 46.9135C105.336 46.8065 105.246 46.6954 105.159 46.5864C104.95 46.3271 104.749 46.0631 104.559 45.7943C104.47 45.6709 104.386 45.5474 104.304 45.422C104.215 45.2944 104.131 45.1648 104.051 45.0352C103.966 44.9056 103.886 44.7739 103.808 44.6402C103.806 44.6357 103.803 44.6315 103.8 44.6279C103.645 44.3666 103.497 44.1033 103.359 43.8359C103.217 43.5643 103.084 43.29 102.958 43.013C102.895 42.8751 102.833 42.7353 102.775 42.5954C102.656 42.3135 102.545 42.0317 102.442 41.7457C102.39 41.6079 102.343 41.4701 102.296 41.3302C102.294 41.3209 102.292 41.3119 102.288 41.3034C102.193 41.0195 102.107 40.7336 102.03 40.4456C102.028 40.4415 102.028 40.4374 102.026 40.4333C101.987 40.2913 101.95 40.1493 101.917 40.0054C101.884 39.8799 101.856 39.7544 101.829 39.6268C101.798 39.4849 101.767 39.3429 101.74 39.1989C101.726 39.1249 101.712 39.0508 101.699 38.9767C101.687 38.915 101.677 38.8513 101.666 38.7896C101.656 38.7278 101.646 38.664 101.635 38.6003C101.615 38.4748 101.596 38.3493 101.58 38.2238C101.559 38.0757 101.543 37.9276 101.526 37.7774C101.508 37.5984 101.492 37.4194 101.477 37.2384C101.467 37.117 101.461 36.9936 101.454 36.8702C101.448 36.757 101.442 36.6439 101.44 36.5307C101.438 36.5247 101.438 36.5182 101.44 36.5122C101.44 36.512 101.44 36.5116 101.439 36.5113C101.439 36.5109 101.439 36.5105 101.439 36.5102C101.439 36.5098 101.439 36.5094 101.439 36.509C101.44 36.5087 101.44 36.5084 101.44 36.5081C101.438 36.506 101.438 36.506 101.44 36.504C101.44 36.5037 101.44 36.5034 101.439 36.5031C101.439 36.5027 101.439 36.5023 101.439 36.5019C101.439 36.5016 101.439 36.5012 101.439 36.5008C101.44 36.5005 101.44 36.5001 101.44 36.4999C101.438 36.4546 101.436 36.4094 101.436 36.3641C101.432 36.2304 101.43 36.0967 101.43 35.963C101.43 35.8416 101.432 35.7222 101.434 35.6009C101.438 35.4322 101.444 35.2635 101.452 35.0948C101.452 35.0578 101.456 35.0228 101.459 34.9858C101.461 34.9487 101.463 34.9137 101.465 34.8767C101.469 34.7985 101.475 34.7204 101.483 34.6422C101.483 34.6278 101.484 34.6133 101.485 34.599C101.492 34.5105 101.5 34.4221 101.508 34.3336C101.524 34.1567 101.545 33.9777 101.568 33.8008C101.58 33.7124 101.59 33.6239 101.605 33.5354C101.613 33.4737 101.623 33.41 101.633 33.3462C101.642 33.2824 101.652 33.2186 101.664 33.1549C101.679 33.0705 101.693 32.9841 101.71 32.8977C101.718 32.8462 101.728 32.7948 101.738 32.7434C101.777 32.5377 101.821 32.332 101.868 32.1263C101.915 31.9185 101.969 31.7128 102.026 31.507C102.082 31.2993 102.144 31.0915 102.209 30.8837C102.24 30.7788 102.273 30.6759 102.31 30.5731C102.378 30.3653 102.45 30.1596 102.53 29.9559C102.567 29.8551 102.606 29.7522 102.65 29.6514C102.732 29.4478 102.818 29.2441 102.907 29.0446C102.952 28.9438 102.997 28.843 103.047 28.7422C103.139 28.5426 103.236 28.3431 103.341 28.1476C103.442 27.9481 103.551 27.7526 103.662 27.5593C103.773 27.3659 103.888 27.1725 104.01 26.9812C104.065 26.8866 104.127 26.7899 104.191 26.6973C104.314 26.508 104.444 26.3188 104.575 26.1336C104.841 25.7592 105.127 25.3909 105.429 25.033ZM101.481 34.6422C101.475 34.7204 101.469 34.7985 101.465 34.8767C101.469 34.7985 101.475 34.7204 101.483 34.6422C101.483 34.6278 101.484 34.6133 101.485 34.599C101.483 34.6134 101.483 34.6278 101.481 34.6422ZM101.736 32.7434C101.728 32.7948 101.718 32.8462 101.71 32.8977C101.718 32.8462 101.728 32.7948 101.738 32.7434H101.736ZM106.861 48.409V48.4111C106.861 48.4131 106.863 48.4131 106.865 48.4131L106.861 48.409Z" fill="#0A042B"/>
<path opacity="0.3" d="M107.454 48.9369C104.2 46.191 102.097 42.3218 101.564 38.0976C101.031 33.8734 102.106 29.6031 104.575 26.1348C104.251 26.4614 103.938 26.8034 103.635 27.1609C102.198 28.8633 101.111 30.832 100.436 32.9545C99.76 35.077 99.509 37.3118 99.697 39.5313C99.8851 41.7508 100.508 43.9115 101.531 45.8901C102.555 47.8687 103.957 49.6264 105.66 51.0628C109.098 53.9639 113.548 55.3804 118.03 55.0006C122.513 54.6209 126.661 52.476 129.562 49.0379C129.864 48.6799 130.148 48.3133 130.415 47.9381C127.411 50.9559 123.383 52.7339 119.129 52.9189C114.876 53.1039 110.708 51.6825 107.454 48.9369Z" fill="black"/>
</g>
<defs>
<linearGradient id="paint0_linear_1786_4185" x1="112.462" y1="24.2288" x2="166.167" y2="30.5707" gradientUnits="userSpaceOnUse">
<stop stop-color="#09ADEA"/>
<stop offset="1" stop-color="#2939EE"/>
</linearGradient>
<linearGradient id="paint1_linear_1786_4185" x1="111.6" y1="48.1387" x2="127.204" y2="48.8717" gradientUnits="userSpaceOnUse">
<stop stop-color="#09ADEA"/>
<stop offset="1" stop-color="#2939EE"/>
</linearGradient>
<clipPath id="clip0_1786_4185">
<rect width="187" height="93.1914" fill="white" transform="translate(0.5)"/>
</clipPath>
</defs>
</svg>
