<svg width="16" height="16" viewBox="0 0 16 16" fill="none" xmlns="http://www.w3.org/2000/svg">
<path d="M13.1798 4.82L13.1865 4.81333L10.7065 2.33333L9.99984 3.04L11.4065 4.44667C10.7798 4.68667 10.3332 5.28667 10.3332 6C10.3332 6.21887 10.3763 6.4356 10.46 6.63781C10.5438 6.84002 10.6666 7.02375 10.8213 7.17851C11.1339 7.49107 11.5578 7.66667 11.9998 7.66667C12.2398 7.66667 12.4598 7.61333 12.6665 7.52667V12.3333C12.6665 12.5101 12.5963 12.6797 12.4712 12.8047C12.3462 12.9298 12.1766 13 11.9998 13C11.823 13 11.6535 12.9298 11.5284 12.8047C11.4034 12.6797 11.3332 12.5101 11.3332 12.3333V9.33333C11.3332 8.97971 11.1927 8.64057 10.9426 8.39052C10.6926 8.14048 10.3535 8 9.99984 8H9.33317V3.33333C9.33317 2.97971 9.19269 2.64057 8.94265 2.39052C8.6926 2.14048 8.35346 2 7.99984 2H3.99984C3.64622 2 3.30708 2.14048 3.05703 2.39052C2.80698 2.64057 2.6665 2.97971 2.6665 3.33333V14H9.33317V9H10.3332V12.3333C10.3332 12.7754 10.5088 13.1993 10.8213 13.5118C11.1339 13.8244 11.5578 14 11.9998 14C12.2187 14 12.4354 13.9569 12.6376 13.8731C12.8399 13.7894 13.0236 13.6666 13.1783 13.5118C13.3331 13.3571 13.4559 13.1733 13.5396 12.9711C13.6234 12.7689 13.6665 12.5522 13.6665 12.3333V6C13.6665 5.54 13.4798 5.12 13.1798 4.82ZM11.9998 6.66667C11.823 6.66667 11.6535 6.59643 11.5284 6.4714C11.4034 6.34638 11.3332 6.17681 11.3332 6C11.3332 5.82319 11.4034 5.65362 11.5284 5.5286C11.6535 5.40357 11.823 5.33333 11.9998 5.33333C12.1766 5.33333 12.3462 5.40357 12.4712 5.5286C12.5963 5.65362 12.6665 5.82319 12.6665 6C12.6665 6.17681 12.5963 6.34638 12.4712 6.4714C12.3462 6.59643 12.1766 6.66667 11.9998 6.66667ZM5.33317 12V9H3.99984L6.6665 4V7.33333H7.99984L5.33317 12Z" fill="black"/>
</svg>
