<svg width="16" height="16" viewBox="0 0 16 16" fill="none" xmlns="http://www.w3.org/2000/svg">
<path d="M13.1803 4.82L13.187 4.81333L10.707 2.33333L10.0003 3.04L11.407 4.44667C10.7803 4.68667 10.3337 5.28667 10.3337 6C10.3337 6.21887 10.3768 6.4356 10.4605 6.63781C10.5443 6.84002 10.6671 7.02375 10.8218 7.17851C11.1344 7.49107 11.5583 7.66667 12.0003 7.66667C12.2403 7.66667 12.4603 7.61333 12.667 7.52667V12.3333C12.667 12.5101 12.5968 12.6797 12.4717 12.8047C12.3467 12.9298 12.1771 13 12.0003 13C11.8235 13 11.6539 12.9298 11.5289 12.8047C11.4039 12.6797 11.3337 12.5101 11.3337 12.3333V9.33333C11.3337 8.97971 11.1932 8.64057 10.9431 8.39052C10.6931 8.14048 10.3539 8 10.0003 8H9.33366V3.33333C9.33366 2.97971 9.19318 2.64057 8.94313 2.39052C8.69309 2.14048 8.35395 2 8.00033 2H4.00033C3.6467 2 3.30756 2.14048 3.05752 2.39052C2.80747 2.64057 2.66699 2.97971 2.66699 3.33333V14H9.33366V9H10.3337V12.3333C10.3337 12.7754 10.5093 13.1993 10.8218 13.5118C11.1344 13.8244 11.5583 14 12.0003 14C12.2192 14 12.4359 13.9569 12.6381 13.8731C12.8403 13.7894 13.0241 13.6666 13.1788 13.5118C13.3336 13.3571 13.4564 13.1733 13.5401 12.9711C13.6239 12.7689 13.667 12.5522 13.667 12.3333V6C13.667 5.54 13.4803 5.12 13.1803 4.82ZM12.0003 6.66667C11.8235 6.66667 11.6539 6.59643 11.5289 6.4714C11.4039 6.34638 11.3337 6.17681 11.3337 6C11.3337 5.82319 11.4039 5.65362 11.5289 5.5286C11.6539 5.40357 11.8235 5.33333 12.0003 5.33333C12.1771 5.33333 12.3467 5.40357 12.4717 5.5286C12.5968 5.65362 12.667 5.82319 12.667 6C12.667 6.17681 12.5968 6.34638 12.4717 6.4714C12.3467 6.59643 12.1771 6.66667 12.0003 6.66667ZM5.33366 12V9H4.00033L6.66699 4V7.33333H8.00033L5.33366 12Z" fill="black"/>
</svg>
