<svg width="16" height="16" viewBox="0 0 16 16" fill="none" xmlns="http://www.w3.org/2000/svg">
<path d="M13.8299 7.09509L8.35493 2.14009C8.30845 2.09322 8.25315 2.05603 8.19222 2.03064C8.13129 2.00526 8.06594 1.99219 7.99993 1.99219C7.93392 1.99219 7.86857 2.00526 7.80764 2.03064C7.74671 2.05603 7.69141 2.09322 7.64493 2.14009L2.16993 7.09509C2.07797 7.15942 2.01033 7.25281 1.97789 7.36024C1.94545 7.46768 1.95009 7.5829 1.99107 7.68737C2.03206 7.79185 2.10699 7.8795 2.20383 7.93622C2.30066 7.99294 2.41376 8.01544 2.52493 8.00009H3.49993V13.5001C3.49993 13.6327 3.55261 13.7599 3.64638 13.8536C3.74015 13.9474 3.86732 14.0001 3.99993 14.0001H11.9999C12.1325 14.0001 12.2597 13.9474 12.3535 13.8536C12.4473 13.7599 12.4999 13.6327 12.4999 13.5001V8.00009H13.4999C13.6088 8.00858 13.7175 7.98119 13.8093 7.92211C13.9012 7.86302 13.9712 7.77549 14.0086 7.67289C14.046 7.57029 14.0488 7.45826 14.0165 7.35392C13.9843 7.24958 13.9187 7.15867 13.8299 7.09509ZM11.4999 10.5001H4.49993V8.00009H11.4999V10.5001Z" fill="white"/>
</svg>
