<svg width="34" height="32" viewBox="0 0 34 32" fill="none" xmlns="http://www.w3.org/2000/svg">
<path d="M9.66059 6.51475C9.69259 6.67154 9.7374 6.83153 9.7822 6.99152C10.3678 9.03617 12.0351 11.212 14.6496 13.3847C14.9472 13.6343 15.2577 13.8838 15.5809 14.1302C15.8625 14.3414 16.1505 14.559 16.4481 14.7702C16.6273 14.9014 16.8129 15.0326 16.9985 15.1605C17.1873 15.0294 17.373 14.8982 17.5522 14.7702C17.8498 14.5558 18.1378 14.3414 18.4194 14.127C18.7426 13.8806 19.053 13.6311 19.3506 13.3847C21.9652 11.212 23.6292 9.03617 24.2181 6.99152C24.2629 6.82833 24.3077 6.66834 24.3429 6.51155C24.4037 6.24597 24.4453 5.99318 24.4741 5.7468C24.5029 5.50682 24.5125 5.27323 24.5061 5.05245C24.4869 3.89413 24.0421 2.9406 23.1588 2.13425C22.5572 1.56789 21.6516 1.04313 20.5955 0.652755C19.4435 0.220785 18.237 0 17.0017 0C15.7665 0 14.5568 0.220785 13.4112 0.649555C12.3455 1.04313 11.4399 1.56789 10.851 2.12145L10.8446 2.12785V2.13425C9.96141 2.9406 9.51659 3.89413 9.49739 5.05565C9.49098 5.27643 9.49739 5.50682 9.52619 5.7468C9.55499 5.99318 9.59979 6.24917 9.66059 6.51475Z" fill="#0A042B"/>
<path d="M4.35137 20.3667C4.59458 20.4179 4.85379 20.4531 5.12581 20.4787C5.28261 20.4947 5.44582 20.5043 5.61223 20.5107C7.73393 20.5811 10.3229 19.6692 13.1966 17.8549C13.5262 17.6469 13.859 17.4293 14.195 17.1989C14.4862 17.0006 14.7775 16.7894 15.0719 16.575C15.2543 16.4438 15.4335 16.3062 15.6159 16.1686C15.5487 15.951 15.4815 15.7366 15.4143 15.5255C11.9293 12.9624 9.42681 10.1626 8.61077 7.33082C8.47636 6.86045 8.37396 6.38369 8.31956 5.90692C7.2091 5.56774 6.16906 5.69573 5.12581 6.28449C4.40257 6.68127 3.62174 7.38202 2.9241 8.26516C2.15607 9.22829 1.57684 10.3098 1.19602 11.4841C0.812005 12.6585 0.645597 13.8744 0.7 15.0999C0.748002 16.2294 0.965612 17.2565 1.31123 17.9861V17.9957L1.31763 18.0021C1.81685 19.09 2.58489 19.8068 3.68254 20.1811C3.89375 20.2579 4.11776 20.3187 4.35137 20.3667Z" fill="#0A042B"/>
<path d="M32.8071 11.4841C32.4231 10.3098 31.8438 9.22829 31.079 8.26836C30.3782 7.38202 29.5973 6.67807 28.8901 6.29409H28.8805L28.8741 6.28449C27.8341 5.69573 26.7908 5.56774 25.6803 5.90692C25.6259 6.38369 25.5235 6.86045 25.3859 7.33082C24.5699 10.1594 22.0706 12.9624 18.5856 15.5223C18.5184 15.7334 18.4512 15.9478 18.3872 16.1654C18.5696 16.3062 18.752 16.4406 18.9312 16.575C23.2546 16.5974 26.9252 17.3941 29.2485 19.2052C29.6357 19.506 29.9974 19.8292 30.3206 20.1843C31.4182 19.8068 32.1831 19.09 32.6823 18.0021C33.0343 17.2533 33.2551 16.2262 33.2999 15.1031C33.3543 13.8744 33.1879 12.6585 32.8071 11.4841Z" fill="#0A042B"/>
<path d="M29.4374 21.0195C29.2709 20.8371 29.0853 20.6547 28.8805 20.4787C28.7589 20.3731 28.6341 20.2675 28.4997 20.1619C26.826 18.8596 24.1955 18.0757 20.8001 17.8517C20.4129 17.8261 20.0161 17.8101 19.6065 17.8005C19.2577 17.7909 18.8993 17.7845 18.5344 17.7909C18.3136 17.7877 18.0864 17.7909 17.8592 17.7973C17.7824 18.0149 17.7088 18.2325 17.6416 18.4437C18.9537 22.5618 19.3281 26.2991 18.3232 29.0637C18.16 29.5181 17.9616 29.9661 17.7248 30.382C18.4224 31.31 19.3409 31.8219 20.5313 31.9595C21.3506 32.0651 22.3938 31.9531 23.4787 31.6523C24.6627 31.3228 25.77 30.7884 26.7684 30.0621C27.7669 29.3357 28.6149 28.4494 29.2933 27.4286C29.9206 26.4847 30.3462 25.528 30.4966 24.7344V24.728V24.7184C30.7334 23.5473 30.5318 22.517 29.8694 21.5634C29.7414 21.3779 29.5942 21.1987 29.4342 21.0195H29.4374Z" fill="#0A042B"/>
<path d="M16.6816 19.4675C16.5856 19.1283 16.48 18.7859 16.3584 18.4371C16.2944 18.2291 16.2208 18.0148 16.144 17.8004C15.9136 17.794 15.6864 17.7908 15.4624 17.7908C11.9486 20.3122 8.51486 21.8225 5.57392 21.7265C5.0875 21.7105 4.60107 21.6593 4.13065 21.5633C3.46502 22.5136 3.26341 23.544 3.50022 24.7183C3.65383 25.531 4.08265 26.4878 4.70668 27.4253C5.38511 28.4492 6.23315 29.3356 7.2316 30.0651C8.23004 30.7883 9.33729 31.3226 10.5181 31.649C11.6094 31.9562 12.6494 32.065 13.4527 31.9626H13.4623L13.4687 31.9594C14.6559 31.8218 15.5776 31.3098 16.2752 30.3819C16.416 30.2027 16.5408 30.0107 16.656 29.8027C16.7808 29.5884 16.896 29.358 17.0017 29.1084C17.0625 28.9644 17.1233 28.8076 17.1809 28.6508C17.9041 26.6542 17.8369 23.9151 17.0017 20.6226C16.9088 20.245 16.8 19.8578 16.6816 19.4675Z" fill="#0A042B"/>
</svg>
