<svg width="33" height="32" viewBox="0 0 33 32" fill="none" xmlns="http://www.w3.org/2000/svg">
<path d="M8.97065 6.51475C9.00265 6.67154 9.04745 6.83153 9.09226 6.99152C9.67788 9.03617 11.3452 11.212 13.9597 13.3847C14.2573 13.6343 14.5677 13.8838 14.8909 14.1302C15.1725 14.3414 15.4606 14.559 15.7582 14.7702C15.9374 14.9014 16.123 15.0326 16.3086 15.1605C16.4974 15.0294 16.683 14.8982 16.8622 14.7702C17.1598 14.5558 17.4478 14.3414 17.7295 14.127C18.0527 13.8806 18.3631 13.6311 18.6607 13.3847C21.2752 11.212 22.9393 9.03617 23.5281 6.99152C23.5729 6.82833 23.6177 6.66834 23.6529 6.51155C23.7137 6.24597 23.7553 5.99318 23.7841 5.7468C23.8129 5.50682 23.8225 5.27323 23.8161 5.05245C23.7969 3.89413 23.3521 2.9406 22.4689 2.13425C21.8673 1.56789 20.9616 1.04313 19.9056 0.652755C18.7535 0.220785 17.5471 0 16.3118 0C15.0765 0 13.8669 0.220785 12.7212 0.649555C11.6556 1.04313 10.7499 1.56789 10.1611 2.12145L10.1547 2.12785V2.13425C9.27147 2.9406 8.82664 3.89413 8.80744 5.05565C8.80104 5.27643 8.80744 5.50682 8.83625 5.7468C8.86505 5.99318 8.90985 6.24917 8.97065 6.51475Z" fill="white"/>
<path d="M3.66143 20.3667C3.90464 20.4179 4.16385 20.4531 4.43587 20.4787C4.59267 20.4947 4.75588 20.5043 4.92229 20.5107C7.04399 20.5811 9.63291 19.6692 12.5066 17.8549C12.8363 17.6469 13.1691 17.4293 13.5051 17.1989C13.7963 17.0006 14.0875 16.7894 14.3819 16.575C14.5643 16.4438 14.7435 16.3062 14.926 16.1686C14.8588 15.951 14.7915 15.7366 14.7243 15.5255C11.2394 12.9624 8.73687 10.1626 7.92083 7.33082C7.78642 6.86045 7.68402 6.38369 7.62961 5.90692C6.51916 5.56774 5.47911 5.69573 4.43587 6.28449C3.71263 6.68127 2.9318 7.38202 2.23416 8.26516C1.46613 9.22829 0.8869 10.3098 0.506082 11.4841C0.122064 12.6585 -0.0443439 13.8744 0.0100586 15.0999C0.0580609 16.2294 0.275671 17.2565 0.621287 17.9861V17.9957L0.627688 18.0021C1.12691 19.09 1.89495 19.8068 2.9926 20.1811C3.20381 20.2579 3.42782 20.3187 3.66143 20.3667Z" fill="white"/>
<path d="M32.1171 11.4841C31.7331 10.3098 31.1539 9.22829 30.3891 8.26836C29.6882 7.38202 28.9074 6.67807 28.2002 6.29409H28.1906L28.1842 6.28449C27.1441 5.69573 26.1009 5.56774 24.9904 5.90692C24.936 6.38369 24.8336 6.86045 24.696 7.33082C23.88 10.1594 21.3806 12.9624 17.8957 15.5223C17.8285 15.7334 17.7613 15.9478 17.6973 16.1654C17.8797 16.3062 18.0621 16.4406 18.2413 16.575C22.5647 16.5974 26.2353 17.3941 28.5586 19.2052C28.9458 19.506 29.3074 19.8292 29.6306 20.1843C30.7283 19.8068 31.4931 19.09 31.9923 18.0021C32.3444 17.2533 32.5652 16.2262 32.61 15.1031C32.6644 13.8744 32.498 12.6585 32.1171 11.4841Z" fill="white"/>
<path d="M28.7474 21.0195C28.581 20.8371 28.3954 20.6547 28.1906 20.4787C28.069 20.3731 27.9442 20.2675 27.8098 20.1619C26.1361 18.8596 23.5056 18.0757 20.1102 17.8517C19.723 17.8261 19.3262 17.8101 18.9166 17.8005C18.5677 17.7909 18.2093 17.7845 17.8445 17.7909C17.6237 17.7877 17.3965 17.7909 17.1693 17.7973C17.0925 18.0149 17.0189 18.2325 16.9517 18.4437C18.2637 22.5618 18.6381 26.2991 17.6333 29.0637C17.4701 29.5181 17.2717 29.9661 17.0349 30.382C17.7325 31.31 18.6509 31.8219 19.8414 31.9595C20.6606 32.0651 21.7039 31.9531 22.7887 31.6523C23.9728 31.3228 25.08 30.7884 26.0785 30.0621C27.0769 29.3357 27.925 28.4494 28.6034 27.4286C29.2306 26.4847 29.6563 25.528 29.8067 24.7344V24.728V24.7184C30.0435 23.5473 29.8419 22.517 29.1794 21.5634C29.0514 21.3779 28.9042 21.1987 28.7442 21.0195H28.7474Z" fill="white"/>
<path d="M15.9917 19.4675C15.8957 19.1283 15.7901 18.7859 15.6685 18.4371C15.6045 18.2291 15.5309 18.0148 15.4541 17.8004C15.2237 17.794 14.9965 17.7908 14.7724 17.7908C11.2587 20.3122 7.82491 21.8225 4.88398 21.7265C4.39755 21.7105 3.91113 21.6593 3.44071 21.5633C2.77508 22.5136 2.57347 23.544 2.81028 24.7183C2.96389 25.531 3.39271 26.4878 4.01674 27.4253C4.69517 28.4492 5.54321 29.3356 6.54165 30.0651C7.5401 30.7883 8.64735 31.3226 9.82821 31.649C10.9195 31.9562 11.9595 32.065 12.7627 31.9626H12.7723L12.7787 31.9594C13.966 31.8218 14.8876 31.3098 15.5853 30.3819C15.7261 30.2027 15.8509 30.0107 15.9661 29.8027C16.0909 29.5884 16.2061 29.358 16.3117 29.1084C16.3725 28.9644 16.4333 28.8076 16.4909 28.6508C17.2142 26.6542 17.147 23.9151 16.3117 20.6226C16.2189 20.245 16.1101 19.8578 15.9917 19.4675Z" fill="white"/>
</svg>
