<svg width="16" height="16" viewBox="0 0 16 16" fill="none" xmlns="http://www.w3.org/2000/svg">
<path d="M5.78125 2.78125V4.21875H7.16563L13.1656 15.2188H15.2156C15.2063 14.8313 15.175 14.4812 15.0594 14.25C14.9187 13.9656 14.6875 13.7812 14 13.7812H13.8313L8.60625 4.13125V4.12813C8.35312 3.63438 8.15 3.2875 7.92188 3.08313C7.69688 2.87844 7.45312 2.78125 7 2.78125H5.78125ZM1.59375 2.8125V3.90625H0.875V4.46875H1.59375V5.40625H2.15625V4.46875H4.59375V5.40625H5.15625V2.8125H4.59375V3.90625H2.15625V2.8125H1.59375ZM1.15625 5.96875V6.90625H5.59375V5.96875H1.15625ZM1.59375 7.46875V7.90625H2.15625V7.46875H1.59375ZM4.59375 7.46875V7.90625H5.15625V7.46875H4.59375ZM1.15625 8.46875V9.40625H5.59375V8.46875H1.15625ZM1.59375 9.96875V10.4062H2.15625V9.96875H1.59375ZM4.59375 9.96875V10.4062H5.15625V9.96875H4.59375ZM1.15625 10.9688V11.9062H5.59375V10.9688H1.15625ZM1.59375 12.4688V12.9062H2.15625V12.4688H1.59375ZM4.59375 12.4688V12.9062H5.15625V12.4688H4.59375ZM1.15625 13.4688V14.4062H5.59375V13.4688H1.15625ZM1.59375 14.9688V15.4375H2.15625V14.9688H1.59375ZM4.59375 14.9688V15.4375H5.15625V14.9688H4.59375Z" fill="black"/>
</svg>
