<svg width="118" height="54" viewBox="0 0 118 54" fill="none" xmlns="http://www.w3.org/2000/svg">
<path d="M59.4577 54.0022C91.9916 54.0022 118.366 52.4531 118.366 50.5421C118.366 48.6312 91.9916 47.082 59.4577 47.082C26.9238 47.082 0.549805 48.6312 0.549805 50.5421C0.549805 52.4531 26.9238 54.0022 59.4577 54.0022Z" fill="#E6E6E6"/>
<path d="M64.5573 19.6283V40.9092C64.5573 45.2254 61.1977 48.7244 57.0532 48.7246H20.095C15.9507 48.7246 12.591 45.2256 12.5908 40.9092V21.7029C18.9985 13.869 28.2631 9.18696 38.137 8.79268C48.0108 8.3984 57.5925 12.328 64.5573 19.6283Z" fill="#E6E6E6"/>
<path opacity="0.2" d="M38.614 40.6205C44.6533 40.6205 49.5492 35.7246 49.5492 29.6852C49.5492 23.6459 44.6533 18.75 38.614 18.75C32.5746 18.75 27.6787 23.6459 27.6787 29.6852C27.6787 35.7246 32.5746 40.6205 38.614 40.6205Z" fill="#1C0964"/>
<path d="M38.6146 38.489C43.4775 38.489 47.4197 34.5468 47.4197 29.6839C47.4197 24.8211 43.4775 20.8789 38.6146 20.8789C33.7517 20.8789 29.8096 24.8211 29.8096 29.6839C29.8096 34.5468 33.7517 38.489 38.6146 38.489Z" fill="#1C0964"/>
<path d="M37.5876 33.4505L34.4844 29.4608L36.289 28.0573L37.7581 29.9463L42.7214 24.707L44.3812 26.2793L37.5876 33.4505Z" fill="white"/>
<path d="M85.4054 15.9886C88.5585 15.9886 91.1146 13.4325 91.1146 10.2794C91.1146 7.12638 88.5585 4.57031 85.4054 4.57031C82.2524 4.57031 79.6963 7.12638 79.6963 10.2794C79.6963 13.4325 82.2524 15.9886 85.4054 15.9886Z" fill="#4E515A"/>
<path d="M87.7197 42.3295L88.1595 44.4043L96.372 43.695L95.7231 40.6328L87.7197 42.3295Z" fill="#FBF6E2"/>
<path d="M87.0801 48.8145L85.6981 42.2933L88.2177 41.7593L89.0657 45.761C89.1358 46.0918 89.1401 46.4333 89.0782 46.7658C89.0164 47.0983 88.8897 47.4154 88.7053 47.6989C88.5209 47.9825 88.2825 48.2269 88.0036 48.4183C87.7248 48.6097 87.411 48.7443 87.0801 48.8145Z" fill="#4E515A"/>
<path d="M82.5745 42.2213L81.6501 44.1304L73.8477 41.4736L75.212 38.6562L82.5745 42.2213Z" fill="#FBF6E2"/>
<path d="M80.4456 45.2309L82.2282 41.5493L84.5463 42.6717L81.6413 48.6712C81.0266 48.3736 80.5552 47.8439 80.331 47.1987C80.1067 46.5535 80.1479 45.8457 80.4456 45.2309Z" fill="#4E515A"/>
<path d="M67.2013 38.4478C67.4684 38.4976 67.7432 38.4881 68.0063 38.4202C68.2694 38.3522 68.5143 38.2274 68.724 38.0546C68.9336 37.8817 69.1028 37.665 69.2196 37.4197C69.3364 37.1744 69.398 36.9065 69.4 36.6348L82.267 24.7717L79.0717 22.2969L67.4221 34.7431C66.9653 34.7697 66.5341 34.963 66.2103 35.2863C65.8865 35.6097 65.6926 36.0406 65.6654 36.4974C65.6382 36.9541 65.7796 37.405 66.0627 37.7645C66.3459 38.124 66.7511 38.3671 67.2015 38.4477L67.2013 38.4478Z" fill="#FBF6E2"/>
<path d="M84.6896 16.2464C87.0363 16.2464 88.9387 14.3439 88.9387 11.9972C88.9387 9.65046 87.0363 7.74805 84.6896 7.74805C82.3428 7.74805 80.4404 9.65046 80.4404 11.9972C80.4404 14.3439 82.3428 16.2464 84.6896 16.2464Z" fill="#FBF6E2"/>
<path d="M88.5026 36.9753C85.5219 36.9753 81.9322 36.3477 79.7176 33.7787L79.6678 33.7209L79.7197 33.6642C79.737 33.6457 81.3657 31.7838 79.7389 28.4635L77.502 29.1516L75.2754 26.2124L76.5089 22.512L81.5567 18.4464C82.2798 17.8669 83.1603 17.5178 84.0841 17.4444C85.756 17.2827 87.3847 16.8189 88.891 16.0754C89.5802 15.7405 90.3393 15.5744 91.1054 15.591L91.2047 15.5937C91.4377 15.6003 91.667 15.6541 91.8786 15.7519C92.0901 15.8497 92.2797 15.9894 92.4356 16.1627C92.5916 16.3359 92.7107 16.539 92.7859 16.7596C92.861 16.9803 92.8905 17.2139 92.8727 17.4463C92.5303 21.8804 91.926 32.5916 93.7017 36.2797L93.7476 36.375L93.6451 36.4009C91.9574 36.7807 90.2329 36.9732 88.5029 36.9751L88.5026 36.9753Z" fill="#1C0964"/>
<path d="M80.3026 33.7219C80.3026 33.7219 69.0574 32.6839 67.8463 35.971C66.6353 39.2581 68.0193 40.8151 70.0954 41.5071C72.1714 42.1991 77.1886 43.0642 77.1886 43.0642L79.4376 40.2961L85.3197 40.6421C85.3197 40.6421 91.874 44.4435 93.6862 48.5093C94.0751 49.3891 94.6951 50.147 95.4803 50.7026C96.2656 51.2581 97.1867 51.5904 98.1457 51.6642C99.599 51.7652 100.89 51.2166 100.89 48.946C100.89 43.7558 93.6239 36.3167 93.6239 36.3167L80.3026 33.7219Z" fill="#4E515A"/>
<path d="M71.7383 38.8237C71.7383 38.8237 74.6794 37.9587 79.3505 40.2077L71.7383 38.8237Z" fill="#4E515A"/>
<path d="M80.4512 9.28685C82.1106 10.2999 83.9815 10.9163 85.9181 11.0882L85.3418 10.3977C85.7614 10.5528 86.2029 10.6403 86.6499 10.6572C86.8737 10.6637 87.0959 10.6177 87.2987 10.5227C87.5016 10.4278 87.6793 10.2867 87.8177 10.1107C87.9307 9.92793 87.9979 9.72053 88.0135 9.50619C88.029 9.29185 87.9925 9.07693 87.907 8.87977C87.7314 8.4865 87.458 8.14469 87.113 7.8869C86.5014 7.40309 85.7797 7.07811 85.012 6.94092C84.2443 6.80372 83.4547 6.85858 82.7134 7.10059C82.2046 7.25242 81.7489 7.54454 81.3985 7.94347C81.2264 8.14436 81.1068 8.38486 81.0506 8.64336C80.9943 8.90187 81.0031 9.1703 81.0762 9.42456" fill="#4E515A"/>
<path d="M85.376 5.89197C86.1309 4.1388 87.2611 2.57246 88.6867 1.30321C89.6023 0.490094 90.6716 -0.209363 91.878 -0.420428C93.0843 -0.631493 94.4442 -0.269917 95.1843 0.705999C95.7898 1.50407 95.9026 2.57323 95.836 3.5725C95.7694 4.57177 95.546 5.56205 95.5673 6.56271C95.5891 7.58438 95.8658 8.58443 96.3721 9.47207C96.8785 10.3597 97.5985 11.1068 98.4668 11.6456C99.3352 12.1844 100.324 12.4978 101.344 12.5573C102.365 12.6169 103.384 12.4207 104.309 11.9866C103.267 12.5625 102.455 13.4744 101.489 14.1678C100.522 14.8612 99.2461 15.3373 98.1477 14.8788C96.9854 14.3944 96.4522 13.0763 96.036 11.8876L94.1793 6.58675C93.8637 5.68558 93.5324 4.75776 92.8883 4.05311C92.2442 3.34847 91.1989 2.91872 90.3125 3.27304C89.6405 3.54154 89.203 4.18269 88.8194 4.79547C88.4359 5.40825 88.0311 6.06186 87.3835 6.38348C86.736 6.70509 85.7746 6.50717 85.563 5.81516" fill="#4E515A"/>
<path d="M86.8335 36.9892C86.7602 36.9892 86.6869 36.9851 86.6141 36.9771C86.1306 36.9227 85.6862 36.6851 85.3724 36.3132C85.0586 35.9413 84.8992 35.4634 84.9269 34.9776C84.9546 34.4918 85.1674 34.0351 85.5214 33.7013C85.8755 33.3675 86.3439 33.182 86.8305 33.1829C86.9154 33.1834 87.0001 33.1897 87.0841 33.2018L92.8933 27.0178L92.2869 24.9962L95.3318 23.6309L96.1854 25.7173C96.4716 26.424 96.5223 27.2042 96.3299 27.9421C96.1375 28.6799 95.7124 29.3361 95.1176 29.8132L88.7232 34.8995C88.7299 34.9615 88.7334 35.0238 88.7336 35.0861C88.7334 35.3539 88.6769 35.6186 88.5677 35.863C88.4585 36.1074 88.299 36.3261 88.0997 36.5048C87.7525 36.818 87.3011 36.9907 86.8335 36.9892Z" fill="#FBF6E2"/>
<path d="M91.375 16.4222C91.5764 16.3327 91.7938 16.2848 92.0142 16.2814C92.2346 16.2781 92.4534 16.3193 92.6575 16.4026C92.8615 16.4859 93.0466 16.6096 93.2017 16.7663C93.3567 16.9229 93.4785 17.1093 93.5597 17.3142L96.5651 24.8994L91.894 28.0135L91.375 16.4222Z" fill="#1C0964"/>
</svg>
