<svg width="18" height="19" viewBox="0 0 18 19" fill="none" xmlns="http://www.w3.org/2000/svg">
<path d="M9.9 0.5C10.2083 0.5 10.5041 0.627125 10.7168 0.851L14.3167 4.7075C14.5147 4.91675 14.625 5.19462 14.625 5.48263V15.125C14.625 15.4234 14.5065 15.7095 14.2955 15.9205C14.0845 16.1315 13.7984 16.25 13.5 16.25H2.25C1.95163 16.25 1.66548 16.1315 1.4545 15.9205C1.24353 15.7095 1.125 15.4234 1.125 15.125V1.625C1.125 1.32663 1.24353 1.04048 1.4545 0.829505C1.66548 0.618526 1.95163 0.5 2.25 0.5L9.9 0.5ZM13.5 6.125H9.5625C9.41332 6.125 9.27024 6.06574 9.16475 5.96025C9.05926 5.85476 9 5.71168 9 5.5625V1.625H2.25V15.125H13.5V6.125ZM5.0625 12.875C4.91332 12.875 4.77024 12.8157 4.66475 12.7102C4.55926 12.6048 4.5 12.4617 4.5 12.3125C4.5 12.1633 4.55926 12.0202 4.66475 11.9148C4.77024 11.8093 4.91332 11.75 5.0625 11.75H10.6875C10.8367 11.75 10.9798 11.8093 11.0852 11.9148C11.1907 12.0202 11.25 12.1633 11.25 12.3125C11.25 12.4617 11.1907 12.6048 11.0852 12.7102C10.9798 12.8157 10.8367 12.875 10.6875 12.875H5.0625ZM5.0625 9.5C4.91332 9.5 4.77024 9.44074 4.66475 9.33525C4.55926 9.22976 4.5 9.08668 4.5 8.9375C4.5 8.78832 4.55926 8.64524 4.66475 8.53975C4.77024 8.43426 4.91332 8.375 5.0625 8.375H10.6875C10.8367 8.375 10.9798 8.43426 11.0852 8.53975C11.1907 8.64524 11.25 8.78832 11.25 8.9375C11.25 9.08668 11.1907 9.22976 11.0852 9.33525C10.9798 9.44074 10.8367 9.5 10.6875 9.5H5.0625ZM6.1875 18.5C6.03832 18.5 5.89524 18.4407 5.78975 18.3352C5.68426 18.2298 5.625 18.0867 5.625 17.9375C5.625 17.7883 5.68426 17.6452 5.78975 17.5398C5.89524 17.4343 6.03832 17.375 6.1875 17.375H15.75V7.8125C15.75 7.66332 15.8093 7.52024 15.9148 7.41475C16.0202 7.30926 16.1633 7.25 16.3125 7.25C16.4617 7.25 16.6048 7.30926 16.7102 7.41475C16.8157 7.52024 16.875 7.66332 16.875 7.8125V17.375C16.875 17.6734 16.7565 17.9595 16.5455 18.1705C16.3345 18.3815 16.0484 18.5 15.75 18.5H6.1875Z" fill="#37CBED"/>
</svg>
