<svg width="18" height="19" viewBox="0 0 18 19" fill="none" xmlns="http://www.w3.org/2000/svg">
<path fill-rule="evenodd" clip-rule="evenodd" d="M4.5 2C3.90326 2 3.33097 2.23705 2.90901 2.65901C2.48705 3.08097 2.25 3.65326 2.25 4.25V14.75C2.25 15.3467 2.48705 15.919 2.90901 16.341C3.33097 16.7629 3.90326 17 4.5 17H9C9.59674 17 10.169 16.7629 10.591 16.341C11.0129 15.919 11.25 15.3467 11.25 14.75V4.25C11.25 3.65326 11.0129 3.08097 10.591 2.65901C10.169 2.23705 9.59674 2 9 2H4.5ZM12.2198 5.96975C12.3604 5.82915 12.5511 5.75016 12.75 5.75016C12.9489 5.75016 13.1396 5.82915 13.2803 5.96975L16.2803 8.96975C16.4209 9.1104 16.4998 9.30113 16.4998 9.5C16.4998 9.69887 16.4209 9.8896 16.2803 10.0303L13.2803 13.0303C13.1388 13.1669 12.9493 13.2425 12.7527 13.2408C12.5561 13.239 12.3679 13.1602 12.2289 13.0211C12.0898 12.8821 12.011 12.6939 12.0092 12.4973C12.0075 12.3007 12.0831 12.1112 12.2198 11.9698L13.9395 10.25H7.5C7.30109 10.25 7.11032 10.171 6.96967 10.0303C6.82902 9.88968 6.75 9.69891 6.75 9.5C6.75 9.30109 6.82902 9.11032 6.96967 8.96967C7.11032 8.82902 7.30109 8.75 7.5 8.75H13.9395L12.2198 7.03025C12.0791 6.8896 12.0002 6.69887 12.0002 6.5C12.0002 6.30113 12.0791 6.1104 12.2198 5.96975Z" fill="#37CBED"/>
</svg>
