<svg width="16" height="16" viewBox="0 0 16 16" fill="none" xmlns="http://www.w3.org/2000/svg">
<path fill-rule="evenodd" clip-rule="evenodd" d="M11.7385 14.0004L10.0892 5.20703L2.6665 5.8817V11.867C2.6665 12.6137 2.6665 12.987 2.81184 13.2724C2.93967 13.5232 3.14363 13.7272 3.3945 13.855C3.67984 14.0004 4.05317 14.0004 4.79984 14.0004H11.7385ZM8.99984 10.0204C8.99984 11.459 7.57317 12.4697 6.95117 12.8424C6.86525 12.8942 6.76683 12.9215 6.6665 12.9215C6.56618 12.9215 6.46776 12.8942 6.38184 12.8424C5.75984 12.4697 4.33317 11.459 4.33317 10.0197C4.33317 8.60836 5.46384 7.66703 6.6665 7.66703C7.91117 7.66703 8.99984 8.60836 8.99984 10.0204Z" fill="#37CBED"/>
<path d="M2.81184 2.728C2.6665 3.01333 2.6665 3.38667 2.6665 4.13333V4.54267L14.6598 3.452C14.6472 3.12667 14.6132 2.90933 14.5212 2.728C14.3933 2.47713 14.1894 2.27316 13.9385 2.14533C13.6532 2 13.2798 2 12.5332 2H4.79984C4.05317 2 3.67984 2 3.3945 2.14533C3.14363 2.27316 2.93967 2.47713 2.81184 2.728ZM14.6665 4.79067L11.4232 5.08533L13.0938 13.9967C13.4885 13.988 13.7358 13.958 13.9385 13.8547C14.1894 13.7268 14.3933 13.5229 14.5212 13.272C14.6665 12.9867 14.6665 12.6133 14.6665 11.8667V4.79067Z" fill="#37CBED" fill-opacity="0.25"/>
<path d="M6.66667 10.6663C7.03486 10.6663 7.33333 10.3679 7.33333 9.99967C7.33333 9.63148 7.03486 9.33301 6.66667 9.33301C6.29848 9.33301 6 9.63148 6 9.99967C6 10.3679 6.29848 10.6663 6.66667 10.6663Z" fill="#37CBED"/>
</svg>
