<svg width="28" height="19" viewBox="0 0 28 19" fill="none" xmlns="http://www.w3.org/2000/svg">
<g opacity="0.7">
<rect width="28" height="18.6667" rx="9.33333" fill="#151619" fill-opacity="0.6"/>
<path d="M10.6667 9.33333C10.6667 9.68696 10.5262 10.0261 10.2761 10.2761C10.0261 10.5262 9.68696 10.6667 9.33333 10.6667C8.97971 10.6667 8.64057 10.5262 8.39052 10.2761C8.14048 10.0261 8 9.68696 8 9.33333C8 8.97971 8.14048 8.64057 8.39052 8.39052C8.64057 8.14048 8.97971 8 9.33333 8C9.68696 8 10.0261 8.14048 10.2761 8.39052C10.5262 8.64057 10.6667 8.97971 10.6667 9.33333ZM15.3333 9.33333C15.3333 9.68696 15.1929 10.0261 14.9428 10.2761C14.6928 10.5262 14.3536 10.6667 14 10.6667C13.6464 10.6667 13.3072 10.5262 13.0572 10.2761C12.8071 10.0261 12.6667 9.68696 12.6667 9.33333C12.6667 8.97971 12.8071 8.64057 13.0572 8.39052C13.3072 8.14048 13.6464 8 14 8C14.3536 8 14.6928 8.14048 14.9428 8.39052C15.1929 8.64057 15.3333 8.97971 15.3333 9.33333ZM20 9.33333C20 9.68696 19.8595 10.0261 19.6095 10.2761C19.3594 10.5262 19.0203 10.6667 18.6667 10.6667C18.313 10.6667 17.9739 10.5262 17.7239 10.2761C17.4738 10.0261 17.3333 9.68696 17.3333 9.33333C17.3333 8.97971 17.4738 8.64057 17.7239 8.39052C17.9739 8.14048 18.313 8 18.6667 8C19.0203 8 19.3594 8.14048 19.6095 8.39052C19.8595 8.64057 20 8.97971 20 9.33333Z" fill="white"/>
</g>
</svg>
