<svg width="32" height="32" viewBox="0 0 32 32" fill="none" xmlns="http://www.w3.org/2000/svg">
<rect width="32" height="32" rx="16" fill="#F4F4F6"/>
<path d="M12.6667 15.9993C12.6667 16.353 12.5262 16.6921 12.2761 16.9422C12.0261 17.1922 11.687 17.3327 11.3333 17.3327C10.9797 17.3327 10.6406 17.1922 10.3905 16.9422C10.1405 16.6921 10 16.353 10 15.9993C10 15.6457 10.1405 15.3066 10.3905 15.0565C10.6406 14.8065 10.9797 14.666 11.3333 14.666C11.687 14.666 12.0261 14.8065 12.2761 15.0565C12.5262 15.3066 12.6667 15.6457 12.6667 15.9993ZM17.3333 15.9993C17.3333 16.353 17.1929 16.6921 16.9428 16.9422C16.6928 17.1922 16.3536 17.3327 16 17.3327C15.6464 17.3327 15.3072 17.1922 15.0572 16.9422C14.8071 16.6921 14.6667 16.353 14.6667 15.9993C14.6667 15.6457 14.8071 15.3066 15.0572 15.0565C15.3072 14.8065 15.6464 14.666 16 14.666C16.3536 14.666 16.6928 14.8065 16.9428 15.0565C17.1929 15.3066 17.3333 15.6457 17.3333 15.9993ZM22 15.9993C22 16.353 21.8595 16.6921 21.6095 16.9422C21.3594 17.1922 21.0203 17.3327 20.6667 17.3327C20.313 17.3327 19.9739 17.1922 19.7239 16.9422C19.4738 16.6921 19.3333 16.353 19.3333 15.9993C19.3333 15.6457 19.4738 15.3066 19.7239 15.0565C19.9739 14.8065 20.313 14.666 20.6667 14.666C21.0203 14.666 21.3594 14.8065 21.6095 15.0565C21.8595 15.3066 22 15.6457 22 15.9993Z" fill="#161A20"/>
</svg>
