<svg width="98" height="143" viewBox="0 0 98 143" fill="none" xmlns="http://www.w3.org/2000/svg">
<g clip-path="url(#clip0_930_5261)">
<path d="M85.1365 142.547H39.8733C33.1607 142.547 27.6997 137.086 27.6997 130.373V12.1736C27.6997 5.46101 33.1607 0 39.8733 0H85.1365C91.8491 0 97.3101 5.46101 97.3101 12.1736V130.373C97.3101 137.086 91.8491 142.547 85.1365 142.547ZM39.8733 0.468757C33.4185 0.468757 28.1685 5.71883 28.1685 12.1736V130.373C28.1685 136.828 33.4185 142.078 39.8733 142.078H85.1365C91.5912 142.078 96.8413 136.828 96.8413 130.373V12.1736C96.8413 5.71883 91.5912 0.468757 85.1365 0.468757H39.8733Z" fill="#DEDFE0"/>
<path d="M68.9155 11.0999H56.0973C54.4051 11.0999 53.0293 9.72409 53.0293 8.03188C53.0293 6.33967 54.4051 4.96387 56.0973 4.96387H68.9155C70.6077 4.96387 71.9835 6.33967 71.9835 8.03188C71.9835 9.72409 70.6077 11.0999 68.9155 11.0999Z" fill="#DADBDC"/>
<path d="M51.1 142.3C51.1 142.427 50.9969 142.53 50.8703 142.53H0.919632C0.793068 142.53 0.689941 142.427 0.689941 142.3C0.689941 142.173 0.793068 142.07 0.919632 142.07H50.8703C50.9969 142.07 51.1 142.173 51.1 142.3Z" fill="#3F3D58"/>
<path d="M28.6187 71.2762L33.2242 72.7903V66.1621H29.0452L28.6187 71.2762Z" fill="#F6AAAE"/>
<path d="M32.6521 67.9976C35.1866 67.9976 37.2412 65.943 37.2412 63.4085C37.2412 60.874 35.1866 58.8193 32.6521 58.8193C30.1176 58.8193 28.063 60.874 28.063 63.4085C28.063 65.943 30.1176 67.9976 32.6521 67.9976Z" fill="#F6AAAE"/>
<path d="M31.4851 63.7665L32.1179 64.5353L33.2617 62.5337C33.2617 62.5337 34.7219 62.6087 34.7219 61.5259C34.7219 60.4431 36.0625 60.4126 36.0625 60.4126C36.0625 60.4126 37.9587 57.1008 34.0305 57.9727C34.0305 57.9727 31.3047 56.1047 29.9499 57.7008C29.9499 57.7008 25.7944 59.7938 26.9827 63.4384L28.9585 67.1931L29.4062 66.3424C29.4062 66.3424 29.1343 62.7728 31.4851 63.7665Z" fill="#2F2E43"/>
<path d="M31.0585 134.085H27.3506V139.344H31.0585V134.085Z" fill="#F6AAAE"/>
<path d="M30.6502 142.359C30.015 142.417 26.8439 142.666 26.6845 141.939C26.5392 141.271 26.7525 140.573 26.7829 140.479C27.0876 137.446 27.2001 137.411 27.2681 137.39C27.3759 137.359 27.6923 137.507 28.2033 137.838L28.2361 137.859L28.2431 137.896C28.2525 137.943 28.4798 139.056 29.5533 138.888C30.2892 138.77 30.5283 138.609 30.6056 138.529C30.5424 138.501 30.465 138.452 30.4111 138.365C30.3314 138.241 30.3173 138.081 30.3689 137.891C30.5072 137.388 30.922 136.642 30.9385 136.612L30.9853 136.527L35.1994 139.37L37.801 140.113C37.9979 140.17 38.155 140.31 38.2346 140.498C38.3448 140.76 38.2768 141.065 38.0659 141.255C37.5925 141.679 36.6549 142.408 35.6682 142.497C35.4057 142.52 35.0588 142.53 34.6698 142.53C33.0408 142.53 30.6666 142.361 30.6478 142.359L30.6502 142.359Z" fill="#2F2E43"/>
<path d="M19.4936 126.187L16.1411 130.239L18.9981 132.603L22.3506 128.55L19.4936 126.187Z" fill="#F6AAAE"/>
<path d="M16.7659 134.669C16.2409 134.308 13.6369 132.48 13.9768 131.819C14.2908 131.212 14.9002 130.811 14.9846 130.757C17.1526 128.615 17.2627 128.66 17.3284 128.688C17.4315 128.732 17.5792 129.049 17.7643 129.628L17.776 129.663L17.7573 129.696C17.7338 129.738 17.1995 130.741 18.1346 131.294C18.7768 131.674 19.0651 131.699 19.1729 131.688C19.1425 131.627 19.1143 131.538 19.1261 131.437C19.1425 131.292 19.2339 131.158 19.3979 131.046C19.8268 130.746 20.619 130.436 20.6542 130.422L20.7433 130.387L22.1777 135.264L23.7081 137.496C23.823 137.664 23.8558 137.873 23.7972 138.07C23.7152 138.342 23.4691 138.534 23.1831 138.546C22.548 138.571 21.362 138.534 20.544 137.974C20.3284 137.826 20.0542 137.613 19.7542 137.364C18.5003 136.326 16.7776 134.683 16.7635 134.669L16.7659 134.669Z" fill="#2F2E43"/>
<path d="M37.192 93.5215H24.4746L27.3012 135.56H31.5411L37.1943 93.5215L37.192 93.5215Z" fill="#2F2E43"/>
<path d="M34.602 95.8371L37.1919 93.5215L35.8958 116.641L21.4112 130.417L17.8018 127.434L26.2394 116.484L34.602 95.8371Z" fill="#2F2E43"/>
<path d="M34.602 68.792L28.3207 67.7725L26.3707 71.1827C23.8909 75.5187 22.8808 80.539 23.4878 85.4961L24.4745 93.5236H37.1919L34.602 68.7943L34.602 68.792Z" fill="#DADBDC"/>
<path d="M29.502 101.09C29.7622 102.386 29.277 103.57 28.4215 103.734C27.5637 103.895 26.659 102.977 26.3988 101.678C26.2887 101.16 26.3074 100.626 26.4551 100.117L25.4238 94.607L28.1192 94.1875L28.8481 99.6649C29.1809 100.084 29.4059 100.572 29.502 101.092V101.09Z" fill="#F6AAAE"/>
<path d="M26.2228 99.5959L22.2642 87.366V87.3473L23.7595 74.7541C23.9892 72.8252 25.6251 71.3721 27.5658 71.3721C28.7541 71.3721 29.8557 71.9088 30.5869 72.8463C31.3182 73.7838 31.5737 74.9815 31.2854 76.137L28.6439 86.7004L29.2744 98.6889L26.2205 99.5959L26.2228 99.5959Z" fill="#DADBDC"/>
<path d="M48.871 72.725C49.9702 78.5962 55.6211 82.4658 61.4946 81.3642C63.2712 81.0314 64.865 80.2814 66.1916 79.2337L79.5511 93.6433C80.3691 94.5245 81.7637 94.5222 82.5793 93.6362C83.341 92.8089 83.2988 91.5245 82.4832 90.7487L68.2096 77.1454C69.9252 74.8157 70.708 71.8086 70.1338 68.7406C69.0346 62.8694 63.3837 58.9998 57.5102 60.1014C51.6367 61.203 47.7694 66.8515 48.871 72.725ZM51.1773 72.2937C50.3171 67.6952 53.3453 63.2702 57.9438 62.41C62.5423 61.5498 66.9674 64.578 67.8275 69.1765C68.6877 73.775 65.6595 78.2001 61.061 79.0602C56.4625 79.9204 52.0375 76.8922 51.1773 72.2937Z" fill="#37CBED"/>
</g>
<defs>
<clipPath id="clip0_930_5261">
<rect width="96.6201" height="142.547" fill="white" transform="translate(0.689941)"/>
</clipPath>
</defs>
</svg>
