<svg width="12" height="13" viewBox="0 0 12 13" fill="none" xmlns="http://www.w3.org/2000/svg">
<path d="M1.5 6.41016C0.95 6.41016 0.5 5.96016 0.5 5.41016V2.91016C0.5 2.36016 0.95 1.91016 1.5 1.91016H5.5C6.05 1.91016 6.5 2.36016 6.5 2.91016V5.41016C6.5 5.96016 6.05 6.41016 5.5 6.41016H4.5V7.91016L3 6.41016H1.5ZM10.5 9.41016C11.05 9.41016 11.5 8.96016 11.5 8.41016V5.91016C11.5 5.36016 11.05 4.91016 10.5 4.91016H7.5V5.41016C7.5 6.51016 6.6 7.41016 5.5 7.41016V8.41016C5.5 8.96016 5.95 9.41016 6.5 9.41016H7.5V10.9102L9 9.41016H10.5Z" fill="url(#paint0_linear_2175_4476)"/>
<defs>
<linearGradient id="paint0_linear_2175_4476" x1="4.59062" y1="6.41016" x2="18.029" y2="7.32064" gradientUnits="userSpaceOnUse">
<stop stop-color="#09ADEA"/>
<stop offset="1" stop-color="#2939EE"/>
</linearGradient>
</defs>
</svg>
