<svg width="300" height="110" viewBox="0 0 300 110" fill="none" xmlns="http://www.w3.org/2000/svg">
<g clip-path="url(#clip0_1826_4452)">
<path d="M180.636 109.581H113.019V23.3882C113.019 12.1709 122.145 3.04492 133.362 3.04492H160.293C171.51 3.04492 180.636 12.1709 180.636 23.3882V109.581Z" fill="#E6E6E6"/>
<path d="M157.53 22.4382H136.42C134.725 22.4382 133.347 21.0595 133.347 19.3646V13.7181C133.347 12.0233 134.725 10.6445 136.42 10.6445H157.53C159.224 10.6445 160.603 12.0233 160.603 13.7181V19.3646C160.603 21.0595 159.224 22.4382 157.53 22.4382Z" fill="white"/>
<path d="M147.483 46.9452V4.75H147.221V46.9452H147.483Z" fill="#E6E6E6"/>
<path d="M172.711 93.5949H167.333C165.781 93.5949 164.518 92.3321 164.518 90.7801V74.3949C164.518 72.8429 165.781 71.5801 167.333 71.5801H172.711C174.263 71.5801 175.525 72.8429 175.525 74.3949V90.7801C175.525 92.3321 174.263 93.5949 172.711 93.5949Z" fill="white"/>
<path d="M137.591 105.126H122.779C121.227 105.126 119.964 103.863 119.964 102.311V73.3461C119.964 71.7941 121.227 70.5312 122.779 70.5312H137.591C139.144 70.5312 140.406 71.7941 140.406 73.3461V102.311C140.406 103.863 139.144 105.126 137.591 105.126Z" fill="white"/>
<path d="M140.769 72.7578H119.616C118.82 72.7578 118.147 72.2684 117.901 71.5111C117.656 70.7538 117.914 69.9626 118.558 69.4953L129.248 61.7485C129.888 61.2855 130.744 61.2899 131.378 61.7598L141.842 69.5066C142.478 69.9777 142.729 70.7681 142.481 71.52C142.233 72.272 141.561 72.7578 140.769 72.7578Z" fill="#CCCCCC"/>
<path d="M174.914 73.0228H165.144C164.348 73.0228 163.675 72.5334 163.429 71.7761C163.183 71.0188 163.441 70.2277 164.086 69.7603L169.024 66.1823C169.663 65.7191 170.519 65.7234 171.154 66.1936L175.987 69.7716C176.623 70.2425 176.874 71.0329 176.626 71.7848C176.378 72.5368 175.706 73.0228 174.914 73.0228Z" fill="#CCCCCC"/>
<path d="M170.556 57.6867H164.508C163.141 57.6867 162.028 56.5742 162.028 55.2067V38.1519C162.028 36.7844 163.141 35.6719 164.508 35.6719H170.556C171.923 35.6719 173.036 36.7844 173.036 38.1519V55.2067C173.036 56.5742 171.923 57.6867 170.556 57.6867Z" fill="white"/>
<path d="M149.851 57.6867H143.804C142.436 57.6867 141.324 56.5742 141.324 55.2067V38.1519C141.324 36.7844 142.436 35.6719 143.804 35.6719H149.851C151.219 35.6719 152.331 36.7844 152.331 38.1519V55.2067C152.331 56.5742 151.219 57.6867 149.851 57.6867Z" fill="white"/>
<path d="M128.884 57.6867H122.837C121.469 57.6867 120.357 56.5742 120.357 55.2067V38.1519C120.357 36.7844 121.469 35.6719 122.837 35.6719H128.884C130.252 35.6719 131.364 36.7844 131.364 38.1519V55.2067C131.364 56.5742 130.252 57.6867 128.884 57.6867Z" fill="white"/>
<path d="M172.381 37.6389H121.274C120.359 37.6389 119.798 36.9906 119.649 36.3485C119.499 35.7058 119.716 34.8768 120.538 34.473L146.366 21.7812C146.831 21.5526 147.386 21.5547 147.85 21.7876L173.13 34.4794C173.846 34.8392 174.189 35.5755 174.005 36.3554C173.82 37.135 173.182 37.6389 172.381 37.6389Z" fill="#CCCCCC"/>
<path d="M180.506 109.452H115.65V102.87C115.65 97.684 123.327 93.4648 132.763 93.4648H180.506V109.452Z" fill="#0A042B"/>
<path d="M155.345 84.1602H151.938V96.7401H155.345V84.1602Z" fill="#0A042B"/>
<path d="M180.505 84.1602H177.098V96.7401H180.505V84.1602Z" fill="#0A042B"/>
<path d="M178.146 85.209H154.821V85.4711H178.146V85.209Z" fill="#0A042B"/>
<path d="M175.525 46.6816H118.916V46.9437H175.525V46.6816Z" fill="#E6E6E6"/>
<path d="M178.146 89.4023H154.821V89.6644H178.146V89.4023Z" fill="#0A042B"/>
<path d="M178.146 91.498H154.821V91.7601H178.146V91.498Z" fill="#0A042B"/>
<path d="M160.063 11.7642H133.592C133.18 11.7642 132.831 11.5111 132.704 11.119C132.577 10.7271 132.711 10.3176 133.044 10.0758L146.422 0.381301C146.753 0.141999 147.196 0.143534 147.524 0.387187L160.618 10.0817C160.948 10.3253 161.078 10.7343 160.949 11.1236C160.821 11.5126 160.473 11.7642 160.063 11.7642Z" fill="#CCCCCC"/>
<path d="M125.73 88.0918H121.012V88.616H125.73V88.0918Z" fill="#E6E6E6"/>
<path d="M103.89 109.581H36.2729V23.3882C36.2729 12.1709 45.399 3.04492 56.6163 3.04492H83.5467C94.764 3.04492 103.89 12.1709 103.89 23.3882V109.581Z" fill="#E6E6E6"/>
<path d="M80.7835 22.4382H59.674C57.9793 22.4382 56.6006 21.0595 56.6006 19.3646V13.7181C56.6006 12.0233 57.9793 10.6445 59.674 10.6445H80.7835C82.4783 10.6445 83.8571 12.0233 83.8571 13.7181V19.3646C83.8571 21.0595 82.4783 22.4382 80.7835 22.4382Z" fill="white"/>
<path d="M70.7368 46.9452V4.75H70.4747V46.9452H70.7368Z" fill="#E6E6E6"/>
<path d="M95.9646 93.5949H90.5868C89.0347 93.5949 87.772 92.3321 87.772 90.7801V74.3949C87.772 72.8429 89.0347 71.5801 90.5868 71.5801H95.9646C97.5167 71.5801 98.7794 72.8429 98.7794 74.3949V90.7801C98.7794 92.3321 97.5167 93.5949 95.9646 93.5949Z" fill="white"/>
<path d="M60.8453 105.126H46.0326C44.4805 105.126 43.2178 103.863 43.2178 102.311V73.3461C43.2178 71.7941 44.4804 70.5312 46.0326 70.5312H60.8453C62.3975 70.5312 63.6602 71.7941 63.6602 73.3461V102.311C63.6602 103.863 62.3975 105.126 60.8453 105.126Z" fill="white"/>
<path d="M64.0231 72.7578H42.8698C42.0737 72.7578 41.4006 72.2684 41.155 71.5111C40.9096 70.7538 41.1674 69.9626 41.812 69.4953L52.502 61.7485C53.1415 61.2855 53.9978 61.2899 54.6324 61.7598L65.0956 69.5066C65.7321 69.9777 65.9829 70.7681 65.7349 71.52C65.4868 72.272 64.8149 72.7578 64.0231 72.7578Z" fill="#CCCCCC"/>
<path d="M98.1679 73.0228H88.3977C87.6016 73.0228 86.9285 72.5334 86.6829 71.7761C86.4373 71.0188 86.6953 70.2277 87.3399 69.7603L92.2775 66.1823C92.9171 65.7191 93.7732 65.7234 94.4078 66.1936L99.2406 69.7716C99.877 70.2425 100.128 71.0329 99.8799 71.7848C99.6318 72.5368 98.9598 73.0228 98.1679 73.0228Z" fill="#CCCCCC"/>
<path d="M93.8097 57.6867H87.7622C86.3947 57.6867 85.2822 56.5742 85.2822 55.2067V38.1519C85.2822 36.7844 86.3947 35.6719 87.7622 35.6719H93.8097C95.1772 35.6719 96.2897 36.7844 96.2897 38.1519V55.2067C96.2897 56.5742 95.1772 57.6867 93.8097 57.6867Z" fill="white"/>
<path d="M73.1052 57.6867H67.0576C65.6901 57.6867 64.5776 56.5742 64.5776 55.2067V38.1519C64.5776 36.7844 65.6901 35.6719 67.0576 35.6719H73.1052C74.4726 35.6719 75.5851 36.7844 75.5851 38.1519V55.2067C75.5851 56.5742 74.4726 57.6867 73.1052 57.6867Z" fill="white"/>
<path d="M52.1384 57.6867H46.0908C44.7233 57.6867 43.6108 56.5742 43.6108 55.2067V38.1519C43.6108 36.7844 44.7233 35.6719 46.0908 35.6719H52.1384C53.5058 35.6719 54.6183 36.7844 54.6183 38.1519V55.2067C54.6183 56.5742 53.5058 57.6867 52.1384 57.6867Z" fill="white"/>
<path d="M95.6349 37.6389H44.5278C43.6124 37.6389 43.052 36.9906 42.9027 36.3485C42.7534 35.7058 42.9704 34.8768 43.792 34.473L69.6194 21.7812C70.0849 21.5526 70.6397 21.5547 71.1039 21.7876L96.3835 34.4794C97.0998 34.8392 97.4432 35.5755 97.2584 36.3554C97.0735 37.135 96.4364 37.6389 95.6349 37.6389Z" fill="#CCCCCC"/>
<path d="M103.759 109.452H68.2471V102.87C68.2471 97.684 72.4506 93.4648 77.6175 93.4648H103.759V109.452Z" fill="#0A042B"/>
<path d="M78.599 84.1602H75.1919V96.7401H78.599V84.1602Z" fill="#0A042B"/>
<path d="M103.759 84.1602H100.352V96.7401H103.759V84.1602Z" fill="#0A042B"/>
<path d="M101.4 85.209H78.0752V85.4711H101.4V85.209Z" fill="#0A042B"/>
<path d="M98.7791 46.6816H42.1694V46.9437H98.7791V46.6816Z" fill="#E6E6E6"/>
<path d="M101.4 89.4023H78.0752V89.6644H101.4V89.4023Z" fill="#0A042B"/>
<path d="M101.4 91.498H78.0752V91.7601H101.4V91.498Z" fill="#0A042B"/>
<path d="M83.3173 11.7642H56.8455C56.4334 11.7642 56.0851 11.5111 55.958 11.119C55.831 10.7271 55.9644 10.3176 56.2981 10.0758L69.6759 0.381301C70.0068 0.141999 70.45 0.143534 70.7783 0.387187L83.8723 10.0817C84.2017 10.3253 84.3316 10.7343 84.2032 11.1236C84.0749 11.5126 83.7271 11.7642 83.3173 11.7642Z" fill="#CCCCCC"/>
<path d="M48.9836 88.0918H44.2661V88.616H48.9836V88.0918Z" fill="#E6E6E6"/>
<path d="M254.907 109.581H187.29V23.3882C187.29 12.1709 196.416 3.04492 207.633 3.04492H234.564C245.781 3.04492 254.907 12.1709 254.907 23.3882V109.581Z" fill="#E6E6E6"/>
<path d="M231.8 22.4382H210.691C208.996 22.4382 207.617 21.0595 207.617 19.3646V13.7181C207.617 12.0233 208.996 10.6445 210.691 10.6445H231.8C233.495 10.6445 234.874 12.0233 234.874 13.7181V19.3646C234.874 21.0595 233.495 22.4382 231.8 22.4382Z" fill="white"/>
<path d="M221.754 46.9452V4.75H221.492V46.9452H221.754Z" fill="#E6E6E6"/>
<path d="M246.982 93.5949H241.604C240.052 93.5949 238.789 92.3321 238.789 90.7801V74.3949C238.789 72.8429 240.052 71.5801 241.604 71.5801H246.982C248.534 71.5801 249.796 72.8429 249.796 74.3949V90.7801C249.796 92.3321 248.534 93.5949 246.982 93.5949Z" fill="white"/>
<path d="M211.862 105.126H197.05C195.498 105.126 194.235 103.863 194.235 102.311V73.3461C194.235 71.7941 195.498 70.5312 197.05 70.5312H211.862C213.415 70.5312 214.677 71.7941 214.677 73.3461V102.311C214.677 103.863 213.415 105.126 211.862 105.126Z" fill="white"/>
<path d="M215.04 72.7578H193.887C193.091 72.7578 192.418 72.2684 192.172 71.5111C191.927 70.7538 192.185 69.9626 192.829 69.4953L203.519 61.7485C204.159 61.2855 205.015 61.2899 205.649 61.7598L216.113 69.5066C216.749 69.9777 217 70.7681 216.752 71.52C216.504 72.272 215.832 72.7578 215.04 72.7578Z" fill="#CCCCCC"/>
<path d="M249.185 73.0228H239.415C238.619 73.0228 237.946 72.5334 237.7 71.7761C237.454 71.0188 237.712 70.2277 238.357 69.7603L243.295 66.1823C243.934 65.7191 244.79 65.7234 245.425 66.1936L250.258 69.7716C250.894 70.2425 251.145 71.0329 250.897 71.7848C250.649 72.5368 249.977 73.0228 249.185 73.0228Z" fill="#CCCCCC"/>
<path d="M244.827 57.6867H238.78C237.412 57.6867 236.3 56.5742 236.3 55.2067V38.1519C236.3 36.7844 237.412 35.6719 238.78 35.6719H244.827C246.195 35.6719 247.307 36.7844 247.307 38.1519V55.2067C247.307 56.5742 246.195 57.6867 244.827 57.6867Z" fill="white"/>
<path d="M224.123 57.6867H218.075C216.708 57.6867 215.595 56.5742 215.595 55.2067V38.1519C215.595 36.7844 216.708 35.6719 218.075 35.6719H224.123C225.49 35.6719 226.603 36.7844 226.603 38.1519V55.2067C226.603 56.5742 225.49 57.6867 224.123 57.6867Z" fill="white"/>
<path d="M203.156 57.6867H197.108C195.741 57.6867 194.628 56.5742 194.628 55.2067V38.1519C194.628 36.7844 195.741 35.6719 197.108 35.6719H203.156C204.523 35.6719 205.636 36.7844 205.636 38.1519V55.2067C205.636 56.5742 204.523 57.6867 203.156 57.6867Z" fill="white"/>
<path d="M246.652 37.6389H195.545C194.63 37.6389 194.07 36.9906 193.92 36.3485C193.771 35.7058 193.988 34.8768 194.81 34.473L220.637 21.7812C221.102 21.5526 221.657 21.5547 222.121 21.7876L247.401 34.4794C248.117 34.8392 248.461 35.5755 248.276 36.3554C248.091 37.135 247.454 37.6389 246.652 37.6389Z" fill="#CCCCCC"/>
<path d="M254.776 109.452H219.264V102.87C219.264 97.684 223.468 93.4648 228.635 93.4648H254.776V109.452Z" fill="#0A042B"/>
<path d="M229.616 84.1602H226.209V96.7401H229.616V84.1602Z" fill="#0A042B"/>
<path d="M254.776 84.1602H251.369V96.7401H254.776V84.1602Z" fill="#0A042B"/>
<path d="M252.417 85.209H229.092V85.4711H252.417V85.209Z" fill="#0A042B"/>
<path d="M249.796 46.6816H193.187V46.9437H249.796V46.6816Z" fill="#E6E6E6"/>
<path d="M252.417 89.4023H229.092V89.6644H252.417V89.4023Z" fill="#0A042B"/>
<path d="M252.417 91.498H229.092V91.7601H252.417V91.498Z" fill="#0A042B"/>
<path d="M234.334 11.7642H207.863C207.451 11.7642 207.102 11.5111 206.975 11.119C206.848 10.7271 206.982 10.3176 207.315 10.0758L220.693 0.381301C221.024 0.141999 221.467 0.143534 221.795 0.387187L234.889 10.0817C235.219 10.3253 235.349 10.7343 235.22 11.1236C235.092 11.5126 234.744 11.7642 234.334 11.7642Z" fill="#CCCCCC"/>
<path d="M200.001 88.0918H195.283V88.616H200.001V88.0918Z" fill="#E6E6E6"/>
<path d="M47.5906 108.663C47.6122 108.846 47.6184 109.016 47.606 109.183H38.4182C38.3346 109.016 38.2634 108.843 38.2015 108.663C37.0782 105.436 38.9257 100.063 36.5831 92.0979C34.8439 86.1872 31.5977 81.5639 30.0844 79.41C28.2245 76.761 26.1171 74.3163 23.6755 70.4109C23.1463 69.5661 22.6017 68.6501 22.0384 67.6505C21.8497 67.3163 19.6742 63.4388 19.8722 63.3181C19.965 63.2624 20.5406 64.0453 20.7356 64.3084C22.4562 66.6355 23.4558 67.6536 24.8886 69.3278C25.7582 70.3428 26.7856 71.5962 28.2276 73.5303C31.9257 78.4847 33.7732 80.9604 34.4168 82.8141C34.587 83.3092 35.4938 85.9892 37.202 89.3128C38.0747 91.0086 38.511 91.8565 38.7493 91.7884C39.4239 91.5935 38.5141 84.5718 35.6547 77.5533C35.1657 76.3588 34.8006 75.5944 34.1074 74.1492C32.9809 71.7911 26.7082 58.6855 22.0972 50.8406C21.5185 49.8535 20.9646 48.9529 20.454 48.1638C20.355 48.0153 20.259 47.8698 20.1662 47.7306C19.5225 46.7712 18.9531 46.013 18.4796 45.5241C18.229 45.2642 17.5915 44.5276 16.3134 43.0484C15.8059 42.4605 15.4345 42.0241 15.1839 41.7054C15.1467 41.659 15.1127 41.6125 15.0849 41.5723C14.7816 41.1762 14.6949 40.9843 14.7661 40.8822C14.8682 40.7368 15.2612 40.8203 15.6914 40.9719C15.7378 40.9874 15.7873 41.006 15.8338 41.0245C16.301 41.1978 16.7745 41.4238 16.9323 41.5011C18.3806 42.1974 19.7948 43.4445 21.1039 44.9269C21.5897 45.4746 22.057 46.0533 22.5088 46.6475C23.9633 48.5661 25.2321 50.655 26.1914 52.3725C27.3673 54.4892 28.0729 56.0458 28.0729 56.0458C31.3563 63.2964 34.9986 71.59 35.1905 71.5188C35.4009 71.4414 31.3625 61.1178 30.1865 55.5104C29.7935 53.632 29.7223 52.2827 30.2391 52.0228C30.2577 52.0135 30.2763 52.0042 30.2979 51.998C30.3784 51.9702 30.4527 51.9733 30.4929 51.9764C30.4929 51.9764 30.9726 51.9145 31.477 52.0228C32.1052 52.1589 32.82 53.9074 33.5163 56.3614C35.3267 62.6868 37.0473 73.685 37.0473 73.685C38.7679 84.6863 41.3797 93.5895 41.9986 93.4905C42.3421 93.4348 41.8501 90.6713 42.3081 86.0634C42.6299 82.8327 42.9951 82.9317 44.1648 77.0891C46.0216 67.8207 46.95 63.1881 46.95 63.1634C46.9407 62.9684 46.916 62.5754 46.9748 62.1669C47.0366 61.7244 47.1945 61.2602 47.5689 60.9971C48.1383 60.5948 49.0543 60.7681 49.4257 60.9971C49.7228 61.1828 49.8744 61.5232 49.9084 62.0122C50.1127 65.0882 45.6936 74.0068 44.1648 86.0634C43.4036 92.07 42.9858 95.3472 44.1648 99.6797C45.3315 103.975 47.3647 106.711 47.5906 108.663Z" fill="#0A042B"/>
<path d="M60.1019 31.1353C57.5632 30.6734 54.41 32.3727 54.2222 34.2299C54.0675 35.7586 55.9465 37.1544 55.7695 37.3245C55.604 37.4834 54.4397 35.8061 52.9843 35.7772C50.7852 35.7335 48.1458 39.458 48.9613 41.6569C49.616 43.4221 52.4209 43.9995 52.3654 44.1326C52.313 44.2582 50.1759 42.8883 48.033 43.2042C44.9647 43.6566 42.0267 47.5442 42.7721 50.0124C43.605 52.7702 48.9971 53.6242 48.9613 53.7259C48.9235 53.8334 43.5344 51.0744 41.5343 52.7975C40.1928 53.9532 40.3852 56.6474 41.2248 58.3678C42.9773 61.9587 48.4445 63.2312 51.1276 61.4624C53.2138 60.0871 51.8069 58.0661 53.9127 53.7259C56.4987 48.3959 60.9962 46.5468 61.0303 42.5853C61.0334 42.2251 61.0434 41.0652 60.4114 40.7286C59.402 40.191 57.454 42.1255 57.3168 41.9664C57.1683 41.7943 59.7758 39.9105 61.3398 36.7056C61.8317 35.6975 62.9508 33.4041 61.9587 32.0637C61.4536 31.3812 60.6099 31.2277 60.1019 31.1353Z" fill="#37CBED"/>
<path d="M45.8666 25.2544C43.3278 24.7925 40.1746 26.4919 39.9868 28.349C39.8322 29.8778 41.7112 31.2736 41.5341 31.4436C41.3686 31.6026 40.2043 29.9252 38.749 29.8963C36.5499 29.8527 33.9105 33.5771 34.726 35.7761C35.3806 37.5412 38.1856 38.1186 38.13 38.2518C38.0777 38.3773 35.9405 37.0074 33.7976 37.3234C30.7294 37.7758 27.7913 41.6634 28.5368 44.1315C29.3697 46.8893 34.7618 47.7433 34.726 47.845C34.6881 47.9526 29.299 45.1935 27.2989 46.9167C25.9574 48.0724 26.1498 50.7665 26.9895 52.4869C28.742 56.0778 34.2092 57.3503 36.8922 55.5815C38.9784 54.2062 37.5715 52.1853 39.6774 47.845C42.2634 42.5151 46.7608 40.666 46.7949 36.7045C46.798 36.3442 46.808 35.1843 46.176 34.8477C45.1667 34.3101 43.2187 36.2446 43.0814 36.0855C42.9329 35.9134 45.5405 34.0296 47.1044 30.8247C47.5963 29.8167 48.7154 27.5232 47.7233 26.1828C47.2182 25.5003 46.3745 25.3468 45.8666 25.2544Z" fill="#37CBED"/>
<path d="M28.6292 18.3835C31.0355 19.3152 32.8374 22.4109 32.0278 24.0929C31.3614 25.4774 29.0301 25.6867 29.0923 25.9242C29.1505 26.1461 31.0193 25.3235 32.2756 26.0588C34.1739 27.1699 34.4801 31.7245 32.6364 33.174C31.1563 34.3376 28.4627 33.3654 28.4405 33.5079C28.4196 33.6424 30.9576 33.59 32.6202 34.9784C35.0007 36.9663 35.4764 41.816 33.5519 43.5317C31.4015 45.4488 26.357 43.3615 26.3344 43.467C26.3105 43.5785 32.3473 44.0394 33.1533 46.5533C33.6939 48.2395 32.123 50.4367 30.5086 51.4655C27.139 53.6129 21.8118 51.8434 20.4472 48.9339C19.3862 46.6716 21.6413 45.6827 22.1116 40.8816C22.6893 34.9856 19.8192 31.0602 21.8586 27.6638C22.0441 27.355 22.6412 26.3605 23.356 26.4035C24.4975 26.472 25.1487 29.1391 25.3489 29.075C25.5654 29.0058 24.3252 26.0376 24.6649 22.4877C24.7718 21.3712 25.0148 18.8309 26.5609 18.2057C27.348 17.8874 28.1477 18.1971 28.6292 18.3835Z" fill="#37CBED"/>
<path d="M1.30156 20.0669C-0.215649 22.1542 -0.0519045 25.7324 1.54006 26.707C2.85052 27.5093 4.92309 26.4216 4.99954 26.6549C5.07099 26.8729 3.05466 27.1946 2.39745 28.4934C1.40439 30.456 3.61571 34.4496 5.9508 34.6684C7.82524 34.844 9.56196 32.5669 9.65783 32.6747C9.74825 32.7764 7.58702 34.108 6.9424 36.1759C6.01941 39.1368 8.24822 43.4701 10.7954 43.8688C13.6417 44.3143 16.7496 39.8261 16.8257 39.9025C16.9062 39.9832 12.083 43.6426 12.7682 46.1921C13.2278 47.9021 15.7388 48.8971 17.6532 48.8867C21.6488 48.8648 25.1665 44.4904 24.7363 41.3057C24.4018 38.8295 21.9706 39.2207 18.973 35.4409C15.2919 30.7993 15.5762 25.9448 12.0214 24.1961C11.6981 24.037 10.6573 23.525 10.0799 23.9485C9.15782 24.6248 10.0561 27.2191 9.85324 27.2738C9.63374 27.3329 9.06716 24.1664 6.85758 21.3673C6.16259 20.4869 4.58142 18.4838 2.94333 18.7965C2.10934 18.9556 1.60513 19.6493 1.30156 20.0669Z" fill="#37CBED"/>
<path d="M3.46758 42.9673C1.95037 45.0546 2.11411 48.6328 3.70608 49.6074C5.01653 50.4097 7.08911 49.322 7.16556 49.5553C7.237 49.7733 5.22068 50.095 4.56347 51.3938C3.57041 53.3564 5.78173 57.3499 8.11681 57.5687C9.99126 57.7444 11.728 55.4673 11.8238 55.5751C11.9143 55.6768 9.75304 57.0084 9.10841 59.0763C8.18543 62.0372 10.4142 66.3705 12.9615 66.7692C15.8077 67.2147 18.9156 62.7265 18.9917 62.8028C19.0722 62.8836 14.249 66.543 14.9342 69.0925C15.3938 70.8025 17.9049 71.7975 19.8192 71.7871C23.8148 71.7652 27.3325 67.3908 26.9023 64.2061C26.5678 61.7299 24.1367 62.1211 21.1391 58.3413C17.4579 53.6997 17.7422 48.8452 14.1874 47.0964C13.8642 46.9374 12.8233 46.4254 12.2459 46.8489C11.3238 47.5252 12.2222 50.1195 12.0193 50.1742C11.7998 50.2333 11.2332 47.0667 9.0236 44.2677C8.32861 43.3873 6.74744 41.3842 5.10935 41.6969C4.27535 41.856 3.77114 42.5497 3.46758 42.9673Z" fill="#37CBED"/>
<path d="M120.005 108.751C120.026 108.934 120.032 109.104 120.02 109.271H110.832C110.749 109.104 110.678 108.931 110.616 108.751C109.492 105.524 111.34 100.151 108.997 92.1858C107.258 86.2751 104.012 81.6518 102.498 79.4979C100.639 76.8489 98.5312 74.4042 96.0895 70.4988C95.5604 69.654 95.0157 68.738 94.4525 67.7384C94.2637 67.4042 92.0882 63.5267 92.2863 63.406C92.3791 63.3503 92.9547 64.1332 93.1497 64.3963C94.8703 66.7234 95.8698 67.7415 97.3026 69.4157C98.1722 70.4307 99.1996 71.684 100.642 73.6182C104.34 78.5726 106.187 81.0483 106.831 82.902C107.001 83.3971 107.908 86.0771 109.616 89.4007C110.489 91.0965 110.925 91.9444 111.163 91.8763C111.838 91.6814 110.928 84.6597 108.069 77.6412C107.58 76.4466 107.215 75.6823 106.521 74.2371C105.395 71.879 99.1223 58.7733 94.5113 50.9285C93.9326 49.9413 93.3787 49.0408 92.8681 48.2517C92.769 48.1032 92.6731 47.9577 92.5803 47.8185C91.9366 46.8591 91.3672 46.1009 90.8937 45.612C90.643 45.352 90.0055 44.6155 88.7275 43.1363C88.22 42.5483 87.8486 42.112 87.5979 41.7933C87.5608 41.7468 87.5268 41.7004 87.4989 41.6602C87.1956 41.2641 87.109 41.0722 87.1802 40.9701C87.2823 40.8246 87.6753 40.9082 88.1055 41.0598C88.1519 41.0753 88.2014 41.0939 88.2478 41.1124C88.7151 41.2857 89.1886 41.5117 89.3464 41.589C90.7947 42.2853 92.2089 43.5324 93.5179 45.0147C94.0038 45.5625 94.4711 46.1412 94.9229 46.7354C96.3773 48.654 97.6461 50.7429 98.6054 52.4604C99.7814 54.5771 100.487 56.1337 100.487 56.1337C103.77 63.3843 107.413 71.6779 107.605 71.6067C107.815 71.5293 103.777 61.2057 102.601 55.5983C102.208 53.7199 102.136 52.3706 102.653 52.1107C102.672 52.1014 102.69 52.0921 102.712 52.0859C102.792 52.0581 102.867 52.0612 102.907 52.0643C102.907 52.0643 103.387 52.0024 103.891 52.1107C104.519 52.2468 105.234 53.9953 105.93 56.4493C107.741 62.7747 109.461 73.7729 109.461 73.7729C111.182 84.7742 113.794 93.6774 114.413 93.5784C114.756 93.5227 114.264 90.7592 114.722 86.1513C115.044 82.9206 115.409 83.0196 116.579 77.177C118.436 67.9086 119.364 63.276 119.364 63.2512C119.355 63.0563 119.33 62.6633 119.389 62.2548C119.451 61.8123 119.609 61.3481 119.983 61.085C120.552 60.6827 121.468 60.856 121.84 61.085C122.137 61.2707 122.288 61.6111 122.323 62.1C122.527 65.1761 118.108 74.0947 116.579 86.1513C115.818 92.1579 115.4 95.4351 116.579 99.7676C117.746 104.063 119.779 106.799 120.005 108.751Z" fill="#0A042B"/>
<path d="M132.516 31.2232C129.977 30.7613 126.824 32.4606 126.636 34.3178C126.482 35.8465 128.361 37.2423 128.184 37.4124C128.018 37.5713 126.854 35.894 125.398 35.8651C123.199 35.8214 120.56 39.5459 121.375 41.7448C122.03 43.51 124.835 44.0874 124.779 44.2205C124.727 44.3461 122.59 42.9761 120.447 43.2921C117.379 43.7445 114.441 47.6321 115.186 50.1003C116.019 52.8581 121.411 53.712 121.375 53.8138C121.338 53.9213 115.948 51.1623 113.948 52.8854C112.607 54.0411 112.799 56.7353 113.639 58.4557C115.391 62.0466 120.859 63.3191 123.542 61.5503C125.628 60.175 124.221 58.154 126.327 53.8138C128.913 48.4838 133.41 46.6347 133.444 42.6732C133.447 42.313 133.457 41.153 132.825 40.8164C131.816 40.2789 129.868 42.2134 129.731 42.0543C129.582 41.8822 132.19 39.9983 133.754 36.7935C134.246 35.7854 135.365 33.492 134.373 32.1516C133.868 31.4691 133.024 31.3156 132.516 31.2232Z" fill="#37CBED"/>
<path d="M118.281 25.3423C115.742 24.8804 112.589 26.5798 112.401 28.4369C112.246 29.9657 114.125 31.3615 113.948 31.5315C113.783 31.6905 112.618 30.0131 111.163 29.9842C108.964 29.9405 106.325 33.665 107.14 35.864C107.795 37.6291 110.6 38.2065 110.544 38.3396C110.492 38.4652 108.355 37.0953 106.212 37.4113C103.143 37.8637 100.205 41.7513 100.951 44.2194C101.784 46.9772 107.176 47.8312 107.14 47.9329C107.102 48.0405 101.713 45.2814 99.713 47.0045C98.3715 48.1603 98.5639 50.8544 99.4035 52.5748C101.156 56.1657 106.623 57.4382 109.306 55.6694C111.392 54.2941 109.986 52.2732 112.091 47.9329C114.677 42.6029 119.175 40.7538 119.209 36.7923C119.212 36.4321 119.222 35.2722 118.59 34.9356C117.581 34.398 115.633 36.3325 115.495 36.1734C115.347 36.0013 117.955 34.1175 119.518 30.9126C120.01 29.9045 121.129 27.6111 120.137 26.2707C119.632 25.5882 118.789 25.4347 118.281 25.3423Z" fill="#37CBED"/>
<path d="M101.043 18.4714C103.45 19.4031 105.251 22.4988 104.442 24.1808C103.775 25.5653 101.444 25.7745 101.506 26.012C101.565 26.234 103.433 25.4114 104.69 26.1467C106.588 27.2578 106.894 31.8124 105.05 33.2619C103.57 34.4255 100.877 33.4533 100.855 33.5958C100.834 33.7303 103.372 33.6779 105.034 35.0663C107.415 37.0542 107.89 41.9039 105.966 43.6196C103.816 45.5367 98.771 43.4494 98.7485 43.5549C98.7246 43.6664 104.761 44.1273 105.567 46.6412C106.108 48.3274 104.537 50.5246 102.923 51.5534C99.553 53.7008 94.2259 51.9313 92.8613 49.0218C91.8002 46.7595 94.0553 45.7706 94.5257 40.9694C95.1034 35.0735 92.2332 31.1481 94.2727 27.7517C94.4582 27.4429 95.0553 26.4484 95.7701 26.4914C96.9116 26.5599 97.5628 29.227 97.7629 29.1629C97.9795 29.0937 96.7393 26.1255 97.079 22.5756C97.1858 21.459 97.4289 18.9188 98.9749 18.2936C99.7621 17.9753 100.562 18.285 101.043 18.4714Z" fill="#37CBED"/>
<path d="M73.7156 20.1548C72.1984 22.242 72.3622 25.8203 73.9541 26.7949C75.2646 27.5972 77.3372 26.5095 77.4136 26.7428C77.485 26.9608 75.4687 27.2825 74.8115 28.5813C73.8185 30.5439 76.0298 34.5374 78.3649 34.7562C80.2393 34.9319 81.976 32.6548 82.0719 32.7626C82.1623 32.8643 80.0011 34.1959 79.3565 36.2638C78.4335 39.2247 80.6623 43.558 83.2095 43.9567C86.0557 44.4022 89.1636 39.914 89.2398 39.9903C89.3203 40.0711 84.497 43.7305 85.1823 46.28C85.6419 47.99 88.1529 48.985 90.0673 48.9746C94.0629 48.9527 97.5806 44.5783 97.1503 41.3936C96.8158 38.9174 94.3847 39.3086 91.3871 35.5288C87.7059 30.8872 87.9903 26.0327 84.4355 24.2839C84.1122 24.1249 83.0714 23.6129 82.494 24.0364C81.5719 24.7127 82.4702 27.307 82.2673 27.3617C82.0478 27.4208 81.4812 24.2542 79.2716 21.4552C78.5766 20.5748 76.9955 18.5717 75.3574 18.8844C74.5234 19.0435 74.0192 19.7372 73.7156 20.1548Z" fill="#37CBED"/>
<path d="M75.8821 43.0552C74.3649 45.1424 74.5287 48.7207 76.1206 49.6953C77.4311 50.4976 79.5037 49.4099 79.5801 49.6432C79.6515 49.8612 77.6352 50.1829 76.978 51.4817C75.985 53.4443 78.1963 57.4378 80.5314 57.6566C82.4058 57.8323 84.1425 55.5552 84.2384 55.663C84.3288 55.7647 82.1676 57.0963 81.523 59.1642C80.6 62.1251 82.8288 66.4584 85.376 66.8571C88.2222 67.3026 91.3302 62.8143 91.4063 62.8907C91.4868 62.9715 86.6635 66.6309 87.3488 69.1804C87.8084 70.8904 90.3194 71.8854 92.2338 71.8749C96.2294 71.8531 99.7471 67.4787 99.3168 64.294C98.9823 61.8178 96.5512 62.209 93.5536 58.4292C89.8724 53.7875 90.1568 48.9331 86.602 47.1843C86.2787 47.0253 85.2379 46.5133 84.6605 46.9368C83.7384 47.6131 84.6367 50.2074 84.4338 50.2621C84.2143 50.3212 83.6477 47.1546 81.4382 44.3556C80.7432 43.4751 79.162 41.4721 77.5239 41.7848C76.6899 41.9439 76.1857 42.6376 75.8821 43.0552Z" fill="#37CBED"/>
<path d="M252.41 108.751C252.388 108.934 252.382 109.104 252.394 109.271H261.582C261.666 109.104 261.737 108.931 261.799 108.751C262.922 105.524 261.075 100.151 263.417 92.1858C265.156 86.2751 268.403 81.6518 269.916 79.4979C271.776 76.8489 273.883 74.4042 276.325 70.4988C276.854 69.654 277.399 68.738 277.962 67.7384C278.151 67.4042 280.326 63.5267 280.128 63.406C280.035 63.3503 279.46 64.1332 279.265 64.3963C277.544 66.7234 276.544 67.7415 275.112 69.4157C274.242 70.4307 273.215 71.684 271.773 73.6182C268.075 78.5726 266.227 81.0483 265.583 82.902C265.413 83.3971 264.506 86.0771 262.798 89.4007C261.926 91.0965 261.489 91.9444 261.251 91.8763C260.576 91.6814 261.486 84.6597 264.346 77.6412C264.835 76.4466 265.2 75.6823 265.893 74.2371C267.019 71.879 273.292 58.7733 277.903 50.9285C278.482 49.9413 279.036 49.0408 279.546 48.2517C279.645 48.1032 279.741 47.9577 279.834 47.8185C280.478 46.8591 281.047 46.1009 281.521 45.612C281.771 45.352 282.409 44.6155 283.687 43.1363C284.194 42.5483 284.566 42.112 284.816 41.7933C284.854 41.7468 284.888 41.7004 284.915 41.6602C285.219 41.2641 285.305 41.0722 285.234 40.9701C285.132 40.8246 284.739 40.9082 284.309 41.0598C284.262 41.0753 284.213 41.0939 284.166 41.1124C283.699 41.2857 283.226 41.5117 283.068 41.589C281.62 42.2853 280.205 43.5324 278.896 45.0147C278.411 45.5625 277.943 46.1412 277.491 46.7354C276.037 48.654 274.768 50.7429 273.809 52.4604C272.633 54.5771 271.927 56.1337 271.927 56.1337C268.644 63.3843 265.002 71.6779 264.81 71.6067C264.599 71.5293 268.638 61.2057 269.814 55.5983C270.207 53.7199 270.278 52.3706 269.761 52.1107C269.743 52.1014 269.724 52.0921 269.702 52.0859C269.622 52.0581 269.548 52.0612 269.507 52.0643C269.507 52.0643 269.028 52.0024 268.523 52.1107C267.895 52.2468 267.18 53.9953 266.484 56.4493C264.674 62.7747 262.953 73.7729 262.953 73.7729C261.232 84.7742 258.621 93.6774 258.002 93.5784C257.658 93.5227 258.15 90.7592 257.692 86.1513C257.37 82.9206 257.005 83.0196 255.835 77.177C253.979 67.9086 253.05 63.276 253.05 63.2512C253.06 63.0563 253.084 62.6633 253.025 62.2548C252.964 61.8123 252.806 61.3481 252.431 61.085C251.862 60.6827 250.946 60.856 250.575 61.085C250.277 61.2707 250.126 61.6111 250.092 62.1C249.888 65.1761 254.307 74.0947 255.835 86.1513C256.597 92.1579 257.014 95.4351 255.835 99.7676C254.669 104.063 252.636 106.799 252.41 108.751Z" fill="#0A042B"/>
<path d="M239.898 31.2232C242.437 30.7613 245.59 32.4606 245.778 34.3178C245.932 35.8465 244.053 37.2423 244.231 37.4124C244.396 37.5713 245.56 35.894 247.016 35.8651C249.215 35.8214 251.854 39.5459 251.039 41.7448C250.384 43.51 247.579 44.0874 247.635 44.2205C247.687 44.3461 249.824 42.9761 251.967 43.2921C255.035 43.7445 257.973 47.6321 257.228 50.1003C256.395 52.8581 251.003 53.712 251.039 53.8138C251.076 53.9213 256.466 51.1623 258.466 52.8854C259.807 54.0411 259.615 56.7353 258.775 58.4557C257.023 62.0466 251.555 63.3191 248.872 61.5503C246.786 60.175 248.193 58.154 246.087 53.8138C243.501 48.4838 239.004 46.6347 238.97 42.6732C238.967 42.313 238.957 41.153 239.589 40.8164C240.598 40.2789 242.546 42.2134 242.683 42.0543C242.832 41.8822 240.224 39.9983 238.66 36.7935C238.168 35.7854 237.049 33.492 238.041 32.1516C238.546 31.4691 239.39 31.3156 239.898 31.2232Z" fill="#37CBED"/>
<path d="M254.133 25.3423C256.672 24.8804 259.825 26.5798 260.013 28.4369C260.167 29.9657 258.288 31.3615 258.465 31.5315C258.631 31.6905 259.795 30.0131 261.251 29.9842C263.45 29.9405 266.089 33.665 265.274 35.864C264.619 37.6291 261.814 38.2065 261.869 38.3396C261.922 38.4652 264.059 37.0953 266.202 37.4113C269.27 37.8637 272.208 41.7513 271.463 44.2194C270.63 46.9772 265.238 47.8312 265.274 47.9329C265.311 48.0405 270.7 45.2814 272.701 47.0045C274.042 48.1603 273.85 50.8544 273.01 52.5748C271.258 56.1657 265.79 57.4382 263.107 55.6694C261.021 54.2941 262.428 52.2732 260.322 47.9329C257.736 42.6029 253.239 40.7538 253.205 36.7923C253.201 36.4321 253.191 35.2722 253.823 34.9356C254.833 34.398 256.781 36.3325 256.918 36.1734C257.067 36.0013 254.459 34.1175 252.895 30.9126C252.403 29.9045 251.284 27.6111 252.276 26.2707C252.781 25.5882 253.625 25.4347 254.133 25.3423Z" fill="#37CBED"/>
<path d="M271.37 18.4714C268.964 19.4031 267.162 22.4988 267.972 24.1808C268.638 25.5653 270.97 25.7745 270.907 26.012C270.849 26.234 268.98 25.4114 267.724 26.1467C265.826 27.2578 265.52 31.8124 267.363 33.2619C268.843 34.4255 271.537 33.4533 271.559 33.5958C271.58 33.7303 269.042 33.6779 267.379 35.0663C264.999 37.0542 264.523 41.9039 266.448 43.6196C268.598 45.5367 273.643 43.4494 273.665 43.5549C273.689 43.6664 267.652 44.1273 266.846 46.6412C266.306 48.3274 267.877 50.5246 269.491 51.5534C272.861 53.7008 278.188 51.9313 279.552 49.0218C280.613 46.7595 278.358 45.7706 277.888 40.9694C277.31 35.0735 280.18 31.1481 278.141 27.7517C277.956 27.4429 277.358 26.4484 276.644 26.4914C275.502 26.5599 274.851 29.227 274.651 29.1629C274.434 29.0937 275.674 26.1255 275.335 22.5756C275.228 21.459 274.985 18.9188 273.439 18.2936C272.652 17.9753 271.852 18.285 271.37 18.4714Z" fill="#37CBED"/>
<path d="M298.698 20.1548C300.215 22.242 300.051 25.8203 298.459 26.7949C297.149 27.5972 295.076 26.5095 295 26.7428C294.929 26.9608 296.945 27.2825 297.602 28.5813C298.595 30.5439 296.384 34.5374 294.049 34.7562C292.174 34.9319 290.438 32.6548 290.342 32.7626C290.251 32.8643 292.413 34.1959 293.057 36.2638C293.98 39.2247 291.751 43.558 289.204 43.9567C286.358 44.4022 283.25 39.914 283.174 39.9903C283.093 40.0711 287.917 43.7305 287.231 46.28C286.772 47.99 284.261 48.985 282.346 48.9746C278.351 48.9527 274.833 44.5783 275.263 41.3936C275.598 38.9174 278.029 39.3086 281.027 35.5288C284.708 30.8872 284.423 26.0327 287.978 24.2839C288.301 24.1249 289.342 23.6129 289.92 24.0364C290.842 24.7127 289.943 27.307 290.146 27.3617C290.366 27.4208 290.932 24.2542 293.142 21.4552C293.837 20.5748 295.418 18.5717 297.056 18.8844C297.89 19.0435 298.394 19.7372 298.698 20.1548Z" fill="#37CBED"/>
<path d="M296.532 43.0552C298.049 45.1424 297.885 48.7207 296.293 49.6953C294.983 50.4976 292.91 49.4099 292.834 49.6432C292.763 49.8612 294.779 50.1829 295.436 51.4817C296.429 53.4443 294.218 57.4378 291.883 57.6566C290.008 57.8323 288.272 55.5552 288.176 55.663C288.085 55.7647 290.247 57.0963 290.891 59.1642C291.814 62.1251 289.585 66.4584 287.038 66.8571C284.192 67.3026 281.084 62.8143 281.008 62.8907C280.927 62.9715 285.751 66.6309 285.065 69.1804C284.606 70.8904 282.095 71.8854 280.18 71.8749C276.185 71.8531 272.667 67.4787 273.097 64.294C273.432 61.8178 275.863 62.209 278.861 58.4292C282.542 53.7875 282.257 48.9331 285.812 47.1843C286.135 47.0253 287.176 46.5133 287.754 46.9368C288.676 47.6131 287.777 50.2074 287.98 50.2621C288.2 50.3212 288.766 47.1546 290.976 44.3556C291.671 43.4751 293.252 41.4721 294.89 41.7848C295.724 41.9439 296.228 42.6376 296.532 43.0552Z" fill="#37CBED"/>
<path d="M262.473 109.541C262.473 109.687 262.359 109.801 262.213 109.801H22.9385V109.281H262.213C262.359 109.281 262.473 109.399 262.473 109.541Z" fill="#E6E6E6"/>
</g>
<defs>
<clipPath id="clip0_1826_4452">
<rect width="299.5" height="109.598" fill="white" transform="translate(0.25 0.201172)"/>
</clipPath>
</defs>
</svg>
