<svg width="16" height="16" viewBox="0 0 16 16" fill="none" xmlns="http://www.w3.org/2000/svg">
<path d="M7.99967 1.33398C11.6817 1.33398 14.6663 4.31865 14.6663 8.00065C14.6663 11.6827 11.6817 14.6673 7.99967 14.6673C4.31767 14.6673 1.33301 11.6827 1.33301 8.00065C1.33301 4.31865 4.31767 1.33398 7.99967 1.33398ZM8.99967 4.66732H7.33301C6.97939 4.66732 6.64025 4.80779 6.3902 5.05784C6.14015 5.30789 5.99967 5.64703 5.99967 6.00065V10.6673C5.99967 10.8441 6.06991 11.0137 6.19494 11.1387C6.31996 11.2637 6.48953 11.334 6.66634 11.334C6.84315 11.334 7.01272 11.2637 7.13775 11.1387C7.26277 11.0137 7.33301 10.8441 7.33301 10.6673V9.33398H8.99967C9.61851 9.33398 10.212 9.08815 10.6496 8.65057C11.0872 8.21298 11.333 7.61949 11.333 7.00065C11.333 6.38181 11.0872 5.78832 10.6496 5.35074C10.212 4.91315 9.61851 4.66732 8.99967 4.66732ZM8.99967 6.00065C9.26489 6.00065 9.51925 6.10601 9.70678 6.29354C9.89432 6.48108 9.99967 6.73543 9.99967 7.00065C9.99967 7.26587 9.89432 7.52022 9.70678 7.70776C9.51925 7.89529 9.26489 8.00065 8.99967 8.00065H7.33301V6.00065H8.99967Z" fill="black"/>
</svg>
