<svg width="18" height="19" viewBox="0 0 18 19" fill="none" xmlns="http://www.w3.org/2000/svg">
<path fill-rule="evenodd" clip-rule="evenodd" d="M13.5 7.8125C13.9476 7.8125 14.3768 7.63471 14.6932 7.31824C15.0097 7.00178 15.1875 6.57255 15.1875 6.125C15.1875 5.67745 15.0097 5.24823 14.6932 4.93176C14.3768 4.61529 13.9476 4.4375 13.5 4.4375C13.0524 4.4375 12.6232 4.61529 12.3068 4.93176C11.9903 5.24823 11.8125 5.67745 11.8125 6.125C11.8125 6.57255 11.9903 7.00178 12.3068 7.31824C12.6232 7.63471 13.0524 7.8125 13.5 7.8125ZM13.5 9.5C14.1312 9.49995 14.7498 9.32287 15.2854 8.98889C15.8211 8.65491 16.2523 8.1774 16.5301 7.61062C16.808 7.04384 16.9213 6.41049 16.8573 5.78253C16.7932 5.15456 16.5544 4.55714 16.1678 4.05813C15.7812 3.55912 15.2625 3.17851 14.6704 2.95956C14.0784 2.7406 13.4368 2.69206 12.8186 2.81945C12.2003 2.94684 11.6302 3.24505 11.173 3.68022C10.7157 4.11539 10.3897 4.67007 10.2319 5.28125H1.96875C1.74497 5.28125 1.53036 5.37015 1.37213 5.52838C1.2139 5.68661 1.125 5.90122 1.125 6.125C1.125 6.34878 1.2139 6.56339 1.37213 6.72162C1.53036 6.87986 1.74497 6.96875 1.96875 6.96875H10.2319C10.4189 7.69326 10.8415 8.33507 11.4331 8.79326C12.0246 9.25146 12.7517 9.50007 13.5 9.5ZM6.1875 12.875C6.1875 13.3226 6.00971 13.7518 5.69324 14.0682C5.37678 14.3847 4.94755 14.5625 4.5 14.5625C4.05245 14.5625 3.62323 14.3847 3.30676 14.0682C2.99029 13.7518 2.8125 13.3226 2.8125 12.875C2.8125 12.4274 2.99029 11.9982 3.30676 11.6818C3.62323 11.3653 4.05245 11.1875 4.5 11.1875C4.94755 11.1875 5.37678 11.3653 5.69324 11.6818C6.00971 11.9982 6.1875 12.4274 6.1875 12.875ZM7.76813 13.7188C7.56123 14.5126 7.07234 15.204 6.3928 15.6637C5.71327 16.1234 4.8896 16.3199 4.07573 16.2166C3.26185 16.1132 2.51347 15.717 1.97043 15.102C1.42739 14.4871 1.12686 13.6954 1.125 12.875C1.12472 12.0533 1.42419 11.2598 1.96725 10.6432C2.51031 10.0266 3.25965 9.62928 4.07475 9.52575C4.88986 9.42223 5.71474 9.6196 6.3947 10.0809C7.07466 10.5421 7.56299 11.2356 7.76813 12.0313H16.0312C16.255 12.0313 16.4696 12.1201 16.6279 12.2784C16.7861 12.4366 16.875 12.6512 16.875 12.875C16.875 13.0988 16.7861 13.3134 16.6279 13.4716C16.4696 13.6299 16.255 13.7188 16.0312 13.7188H7.76813Z" fill="#37CBED"/>
</svg>
