<svg width="18" height="19" viewBox="0 0 18 19" fill="none" xmlns="http://www.w3.org/2000/svg">
<path d="M8.25 13.25H9.75V8.75H8.25V13.25ZM9 7.25C9.2125 7.25 9.39075 7.178 9.53475 7.034C9.67875 6.89 9.7505 6.712 9.75 6.5C9.7495 6.288 9.6775 6.11 9.534 5.966C9.3905 5.822 9.2125 5.75 9 5.75C8.7875 5.75 8.6095 5.822 8.466 5.966C8.3225 6.11 8.2505 6.288 8.25 6.5C8.2495 6.712 8.3215 6.89025 8.466 7.03475C8.6105 7.17925 8.7885 7.251 9 7.25ZM9 17C7.2625 16.5625 5.828 15.5655 4.6965 14.009C3.565 12.4525 2.9995 10.7245 3 8.825V4.25L9 2L15 4.25V8.825C15 10.725 14.4345 12.4533 13.3035 14.0098C12.1725 15.5663 10.738 16.563 9 17Z" fill="#37CBED"/>
</svg>
