<svg width="24" height="23" viewBox="0 0 24 23" fill="none" xmlns="http://www.w3.org/2000/svg">
<path d="M18.75 23C20.1424 23 21.4777 22.4469 22.4623 21.4623C23.4469 20.4777 24 19.1424 24 17.75C24 16.3576 23.4469 15.0223 22.4623 14.0377C21.4777 13.0531 20.1424 12.5 18.75 12.5C17.3576 12.5 16.0223 13.0531 15.0377 14.0377C14.0531 15.0223 13.5 16.3576 13.5 17.75C13.5 19.1424 14.0531 20.4777 15.0377 21.4623C16.0223 22.4469 17.3576 23 18.75 23ZM19.5 15.5V17H21C21.1989 17 21.3897 17.079 21.5303 17.2197C21.671 17.3603 21.75 17.5511 21.75 17.75C21.75 17.9489 21.671 18.1397 21.5303 18.2803C21.3897 18.421 21.1989 18.5 21 18.5H19.5V20C19.5 20.1989 19.421 20.3897 19.2803 20.5303C19.1397 20.671 18.9489 20.75 18.75 20.75C18.5511 20.75 18.3603 20.671 18.2197 20.5303C18.079 20.3897 18 20.1989 18 20V18.5H16.5C16.3011 18.5 16.1103 18.421 15.9697 18.2803C15.829 18.1397 15.75 17.9489 15.75 17.75C15.75 17.5511 15.829 17.3603 15.9697 17.2197C16.1103 17.079 16.3011 17 16.5 17H18V15.5C18 15.3011 18.079 15.1103 18.2197 14.9697C18.3603 14.829 18.5511 14.75 18.75 14.75C18.9489 14.75 19.1397 14.829 19.2803 14.9697C19.421 15.1103 19.5 15.3011 19.5 15.5Z" fill="#EBFCFF"/>
<path d="M13.0605 1.24997C12.7792 0.968764 12.3977 0.810791 12 0.810791C11.6022 0.810791 11.2208 0.968764 10.9395 1.24997L0.968971 11.219C0.899239 11.2887 0.843925 11.3715 0.806186 11.4626C0.768447 11.5537 0.749023 11.6514 0.749023 11.75C0.749023 11.8486 0.768447 11.9462 0.806186 12.0373C0.843925 12.1285 0.899239 12.2112 0.968971 12.281C1.1098 12.4218 1.30081 12.5009 1.49997 12.5009C1.59859 12.5009 1.69624 12.4815 1.78735 12.4438C1.87846 12.406 1.96124 12.3507 2.03097 12.281L12 2.31047L21.969 12.281C22.1098 12.4218 22.3008 12.5009 22.5 12.5009C22.6991 12.5009 22.8901 12.4218 23.031 12.281C23.1718 12.1401 23.2509 11.9491 23.2509 11.75C23.2509 11.5508 23.1718 11.3598 23.031 11.219L19.5 7.68947V2.74997C19.5 2.55106 19.421 2.36029 19.2803 2.21964C19.1396 2.07899 18.9489 1.99997 18.75 1.99997H17.25C17.0511 1.99997 16.8603 2.07899 16.7196 2.21964C16.579 2.36029 16.5 2.55106 16.5 2.74997V4.68947L13.0605 1.24997Z" fill="#EBFCFF"/>
<path d="M12 3.93945L19.068 11.0075C17.82 10.9485 16.5801 11.2371 15.4864 11.841C14.3927 12.445 13.4881 13.3407 12.8733 14.4284C12.2585 15.516 11.9576 16.753 12.0042 18.0015C12.0507 19.25 12.4429 20.4611 13.137 21.5H5.25C4.65326 21.5 4.08097 21.2629 3.65901 20.8409C3.23705 20.419 3 19.8467 3 19.25V12.9395L12 3.93945Z" fill="#EBFCFF"/>
</svg>
