<svg width="12" height="13" viewBox="0 0 12 13" fill="none" xmlns="http://www.w3.org/2000/svg">
<path d="M9.0155 8.71866L11.157 10.8597L10.4495 11.5672L8.3085 9.42566C7.51187 10.0643 6.521 10.4116 5.5 10.4102C3.016 10.4102 1 8.39416 1 5.91016C1 3.42616 3.016 1.41016 5.5 1.41016C7.984 1.41016 10 3.42616 10 5.91016C10.0015 6.93116 9.65411 7.92203 9.0155 8.71866ZM6.089 3.99866C5.66219 3.86726 5.20368 3.88249 4.78652 4.04192C4.36937 4.20135 4.01758 4.49581 3.7872 4.87838C3.55682 5.26095 3.46111 5.70962 3.51532 6.1529C3.56953 6.59617 3.77054 7.00856 4.08632 7.32434C4.4021 7.64012 4.81448 7.84113 5.25776 7.89533C5.70104 7.94954 6.14971 7.85383 6.53228 7.62345C6.91485 7.39308 7.20931 7.04128 7.36874 6.62413C7.52817 6.20698 7.5434 5.74847 7.412 5.32166C7.34532 5.46901 7.24389 5.59799 7.11641 5.69753C6.98894 5.79707 6.83922 5.86421 6.6801 5.89319C6.52098 5.92216 6.3572 5.91211 6.20282 5.86389C6.04844 5.81567 5.90805 5.73072 5.79371 5.61634C5.67936 5.50195 5.59447 5.36153 5.54631 5.20713C5.49815 5.05273 5.48816 4.88895 5.51719 4.72984C5.54623 4.57073 5.61342 4.42104 5.71302 4.2936C5.81261 4.16616 5.94162 4.06528 6.089 3.99866Z" fill="url(#paint0_linear_2175_4483)"/>
<defs>
<linearGradient id="paint0_linear_2175_4483" x1="4.77713" y1="6.48866" x2="17.2044" y2="7.17755" gradientUnits="userSpaceOnUse">
<stop stop-color="#09ADEA"/>
<stop offset="1" stop-color="#2939EE"/>
</linearGradient>
</defs>
</svg>
