<svg width="98" height="143" viewBox="0 0 98 143" fill="none" xmlns="http://www.w3.org/2000/svg">
<g clip-path="url(#clip0_930_5261)">
<path d="M85.1365 142.547H39.8733C33.1607 142.547 27.6997 137.086 27.6997 130.373V12.1736C27.6997 5.46101 33.1607 0 39.8733 0H85.1365C91.8491 0 97.3101 5.46101 97.3101 12.1736V130.373C97.3101 137.086 91.8491 142.547 85.1365 142.547ZM39.8733 0.468757C33.4185 0.468757 28.1685 5.71883 28.1685 12.1736V130.373C28.1685 136.828 33.4185 142.078 39.8733 142.078H85.1365C91.5912 142.078 96.8413 136.828 96.8413 130.373V12.1736C96.8413 5.71883 91.5912 0.468757 85.1365 0.468757H39.8733Z" fill="#DEDFE0"/>
<path d="M68.9155 11.0989H56.0973C54.4051 11.0989 53.0293 9.72311 53.0293 8.0309C53.0293 6.33869 54.4051 4.96289 56.0973 4.96289H68.9155C70.6077 4.96289 71.9835 6.33869 71.9835 8.0309C71.9835 9.72311 70.6077 11.0989 68.9155 11.0989Z" fill="#DADBDC"/>
<path d="M51.1 142.3C51.1 142.427 50.9969 142.53 50.8703 142.53H0.919632C0.793068 142.53 0.689941 142.427 0.689941 142.3C0.689941 142.173 0.793068 142.07 0.919632 142.07H50.8703C50.9969 142.07 51.1 142.173 51.1 142.3Z" fill="#3F3D58"/>
<path d="M28.6187 71.2762L33.2242 72.7903V66.1621H29.0452L28.6187 71.2762Z" fill="#F6AAAE"/>
<path d="M32.6521 67.9966C35.1866 67.9966 37.2412 65.942 37.2412 63.4075C37.2412 60.873 35.1866 58.8184 32.6521 58.8184C30.1176 58.8184 28.063 60.873 28.063 63.4075C28.063 65.942 30.1176 67.9966 32.6521 67.9966Z" fill="#F6AAAE"/>
<path d="M31.4851 63.7675L32.1179 64.5363L33.2617 62.5347C33.2617 62.5347 34.7219 62.6097 34.7219 61.5269C34.7219 60.444 36.0625 60.4136 36.0625 60.4136C36.0625 60.4136 37.9587 57.1018 34.0305 57.9737C34.0305 57.9737 31.3047 56.1057 29.9499 57.7018C29.9499 57.7018 25.7944 59.7948 26.9827 63.4394L28.9585 67.1941L29.4062 66.3433C29.4062 66.3433 29.1343 62.7737 31.4851 63.7675Z" fill="#2F2E43"/>
<path d="M31.0585 134.084H27.3506V139.343H31.0585V134.084Z" fill="#F6AAAE"/>
<path d="M30.6502 142.359C30.015 142.417 26.8439 142.666 26.6845 141.939C26.5392 141.271 26.7525 140.573 26.7829 140.479C27.0876 137.446 27.2001 137.411 27.2681 137.39C27.3759 137.359 27.6923 137.507 28.2033 137.838L28.2361 137.859L28.2431 137.896C28.2525 137.943 28.4798 139.056 29.5533 138.888C30.2892 138.77 30.5283 138.609 30.6056 138.529C30.5424 138.501 30.465 138.452 30.4111 138.365C30.3314 138.241 30.3173 138.081 30.3689 137.891C30.5072 137.388 30.922 136.642 30.9385 136.612L30.9853 136.527L35.1994 139.37L37.801 140.113C37.9979 140.17 38.155 140.31 38.2346 140.498C38.3448 140.76 38.2768 141.065 38.0659 141.255C37.5925 141.679 36.6549 142.408 35.6682 142.497C35.4057 142.52 35.0588 142.53 34.6698 142.53C33.0408 142.53 30.6666 142.361 30.6478 142.359L30.6502 142.359Z" fill="#2F2E43"/>
<path d="M19.4936 126.186L16.1411 130.238L18.9981 132.602L22.3506 128.549L19.4936 126.186Z" fill="#F6AAAE"/>
<path d="M16.7659 134.668C16.2409 134.307 13.6369 132.479 13.9768 131.818C14.2908 131.211 14.9002 130.81 14.9846 130.756C17.1526 128.614 17.2627 128.659 17.3284 128.687C17.4315 128.731 17.5792 129.048 17.7643 129.627L17.776 129.662L17.7573 129.695C17.7338 129.737 17.1995 130.74 18.1346 131.293C18.7768 131.673 19.0651 131.698 19.1729 131.687C19.1425 131.626 19.1143 131.537 19.1261 131.436C19.1425 131.291 19.2339 131.157 19.3979 131.045C19.8268 130.745 20.619 130.435 20.6542 130.421L20.7433 130.386L22.1777 135.263L23.7081 137.495C23.823 137.663 23.8558 137.872 23.7972 138.069C23.7152 138.341 23.4691 138.533 23.1831 138.545C22.548 138.57 21.362 138.533 20.544 137.973C20.3284 137.825 20.0542 137.612 19.7542 137.363C18.5003 136.325 16.7776 134.682 16.7635 134.668L16.7659 134.668Z" fill="#2F2E43"/>
<path d="M37.192 93.5215H24.4746L27.3012 135.56H31.5411L37.1943 93.5215L37.192 93.5215Z" fill="#2F2E43"/>
<path d="M34.602 95.8371L37.1919 93.5215L35.8958 116.641L21.4112 130.417L17.8018 127.434L26.2394 116.484L34.602 95.8371Z" fill="#2F2E43"/>
<path d="M34.602 68.793L28.3207 67.7734L26.3707 71.1836C23.8909 75.5196 22.8808 80.54 23.4878 85.4971L24.4745 93.5246H37.1919L34.602 68.7953L34.602 68.793Z" fill="#DADBDC"/>
<path d="M29.502 101.09C29.7622 102.386 29.277 103.57 28.4215 103.734C27.5637 103.895 26.659 102.977 26.3988 101.678C26.2887 101.16 26.3074 100.626 26.4551 100.117L25.4238 94.607L28.1192 94.1875L28.8481 99.6649C29.1809 100.084 29.4059 100.572 29.502 101.092V101.09Z" fill="#F6AAAE"/>
<path d="M26.2228 99.5969L22.2642 87.367V87.3483L23.7595 74.7551C23.9892 72.8262 25.6251 71.373 27.5658 71.373C28.7541 71.373 29.8557 71.9098 30.5869 72.8473C31.3182 73.7848 31.5737 74.9825 31.2854 76.138L28.6439 86.7014L29.2744 98.6898L26.2205 99.5969L26.2228 99.5969Z" fill="#DADBDC"/>
<path d="M48.871 72.725C49.9702 78.5962 55.6211 82.4658 61.4946 81.3642C63.2712 81.0314 64.865 80.2814 66.1916 79.2337L79.5511 93.6433C80.3691 94.5245 81.7637 94.5222 82.5793 93.6362C83.341 92.8089 83.2988 91.5245 82.4832 90.7487L68.2096 77.1454C69.9252 74.8157 70.708 71.8086 70.1338 68.7406C69.0346 62.8694 63.3837 58.9998 57.5102 60.1014C51.6367 61.203 47.7694 66.8515 48.871 72.725ZM51.1773 72.2937C50.3171 67.6952 53.3453 63.2702 57.9438 62.41C62.5423 61.5498 66.9674 64.578 67.8275 69.1765C68.6877 73.775 65.6595 78.2001 61.061 79.0602C56.4625 79.9204 52.0375 76.8922 51.1773 72.2937Z" fill="#37CBED"/>
</g>
<defs>
<clipPath id="clip0_930_5261">
<rect width="96.6201" height="142.547" fill="white" transform="translate(0.689941)"/>
</clipPath>
</defs>
</svg>
