<svg width="40" height="40" viewBox="0 0 40 40" fill="none" xmlns="http://www.w3.org/2000/svg">
<rect width="40" height="40" rx="20" fill="#EBFCFF"/>
<path fill-rule="evenodd" clip-rule="evenodd" d="M22.2793 10.152C21.9093 10 21.4393 10 20.5003 10C19.5613 10 19.0923 10 18.7213 10.152C18.2288 10.3542 17.8367 10.7438 17.6313 11.235C17.5373 11.458 17.5013 11.719 17.4863 12.098C17.4796 12.3726 17.403 12.641 17.2638 12.8777C17.1245 13.1145 16.9271 13.3118 16.6903 13.451C16.4491 13.5851 16.1779 13.6561 15.9018 13.6575C15.6258 13.6589 15.3539 13.5907 15.1113 13.459C14.7733 13.281 14.5283 13.183 14.2863 13.151C13.7569 13.0815 13.2214 13.2238 12.7963 13.547C12.4783 13.789 12.2433 14.193 11.7743 15C11.3043 15.807 11.0703 16.21 11.0173 16.605C10.9473 17.131 11.0913 17.663 11.4173 18.084C11.5653 18.276 11.7743 18.437 12.0973 18.639C12.5743 18.936 12.8803 19.442 12.8803 20C12.8803 20.558 12.5743 21.064 12.0983 21.36C11.7743 21.563 11.5653 21.724 11.4163 21.916C11.2554 22.1239 11.1373 22.3617 11.0688 22.6156C11.0003 22.8694 10.9828 23.1343 11.0173 23.395C11.0703 23.789 11.3043 24.193 11.7743 25C12.2443 25.807 12.4783 26.21 12.7963 26.453C13.2203 26.776 13.7563 26.918 14.2863 26.849C14.5283 26.817 14.7733 26.719 15.1113 26.541C15.354 26.4092 15.6261 26.3408 15.9023 26.3422C16.1786 26.3436 16.4499 26.4147 16.6913 26.549C17.1773 26.829 17.4653 27.344 17.4863 27.902C17.5013 28.282 17.5373 28.542 17.6313 28.765C17.8353 29.255 18.2273 29.645 18.7213 29.848C19.0913 30 19.5613 30 20.5003 30C21.4393 30 21.9093 30 22.2793 29.848C22.7719 29.6458 23.1639 29.2562 23.3693 28.765C23.4633 28.542 23.4993 28.282 23.5143 27.902C23.5343 27.344 23.8233 26.828 24.3103 26.549C24.5516 26.4149 24.8228 26.3439 25.0988 26.3425C25.3748 26.3411 25.6467 26.4093 25.8893 26.541C26.2273 26.719 26.4723 26.817 26.7143 26.849C27.2443 26.919 27.7803 26.776 28.2043 26.453C28.5223 26.211 28.7573 25.807 29.2263 25C29.6963 24.193 29.9303 23.79 29.9833 23.395C30.0177 23.1343 30 22.8693 29.9314 22.6155C29.8627 22.3616 29.7444 22.1239 29.5833 21.916C29.4353 21.724 29.2263 21.563 28.9033 21.361C28.4263 21.064 28.1203 20.558 28.1203 20C28.1203 19.442 28.4263 18.936 28.9023 18.64C29.2263 18.437 29.4353 18.276 29.5843 18.084C29.7452 17.8761 29.8633 17.6383 29.9318 17.3844C30.0003 17.1306 30.0178 16.8657 29.9833 16.605C29.9303 16.211 29.6963 15.807 29.2263 15C28.7563 14.193 28.5223 13.79 28.2043 13.547C27.7792 13.2238 27.2438 13.0815 26.7143 13.151C26.4723 13.183 26.2273 13.281 25.8893 13.459C25.6466 13.5908 25.3745 13.6592 25.0983 13.6578C24.8221 13.6564 24.5507 13.5853 24.3093 13.451C24.0727 13.3117 23.8755 13.1143 23.7364 12.8776C23.5973 12.6408 23.5209 12.3725 23.5143 12.098C23.4993 11.718 23.4633 11.458 23.3693 11.235C23.2677 10.9917 23.1191 10.7709 22.9321 10.5851C22.745 10.3992 22.5232 10.2521 22.2793 10.152ZM20.5003 23C22.1703 23 23.5233 21.657 23.5233 20C23.5233 18.343 22.1693 17 20.5003 17C18.8303 17 17.4773 18.343 17.4773 20C17.4773 21.657 18.8313 23 20.5003 23Z" fill="#37CBED"/>
</svg>
