<svg width="16" height="16" viewBox="0 0 16 16" fill="none" xmlns="http://www.w3.org/2000/svg">
<path d="M2 14V12.6667H3.33333V2H10V2.66667H12.6667V12.6667H14V14H11.3333V4H10V14H2ZM7.33333 8.66667C7.52222 8.66667 7.68067 8.60267 7.80867 8.47467C7.93667 8.34667 8.00044 8.18844 8 8C7.99956 7.81156 7.93556 7.65333 7.808 7.52533C7.68044 7.39733 7.52222 7.33333 7.33333 7.33333C7.14444 7.33333 6.98622 7.39733 6.85867 7.52533C6.73111 7.65333 6.66711 7.81156 6.66667 8C6.66622 8.18844 6.73022 8.34689 6.85867 8.47533C6.98711 8.60378 7.14533 8.66756 7.33333 8.66667ZM4.66667 12.6667H8.66667V3.33333H4.66667V12.6667Z" fill="white"/>
</svg>
