<svg width="16" height="16" viewBox="0 0 16 16" fill="none" xmlns="http://www.w3.org/2000/svg">
<path d="M2 4.5C2 3.83696 2.26339 3.20107 2.73223 2.73223C3.20107 2.26339 3.83696 2 4.5 2H11.5C12.163 2 12.7989 2.26339 13.2678 2.73223C13.7366 3.20107 14 3.83696 14 4.5V10H13.268L11.934 8H13V4.5C13 4.10218 12.842 3.72064 12.5607 3.43934C12.2794 3.15804 11.8978 3 11.5 3H4.5C4.10218 3 3.72064 3.15804 3.43934 3.43934C3.15804 3.72064 3 4.10218 3 4.5V8H4.066L2.732 10H2V4.5ZM2 11.5V11H5.306L4.309 13.993C3.68081 13.9449 3.09396 13.6613 2.66584 13.1991C2.23773 12.7369 1.99992 12.13 2 11.5ZM6.36 11H9.64L10.64 14H5.36L6.36 11ZM6.694 10H9.306L8.64 8H7.36L6.694 10ZM10.694 11H14V11.5C14.0001 12.13 13.7623 12.7369 13.3342 13.1991C12.906 13.6613 12.3192 13.9449 11.691 13.993L10.694 11ZM10.36 10H12.066L10.732 8H9.694L10.36 10ZM3.934 10H5.64L6.306 8H5.268L3.934 10Z" fill="white"/>
</svg>
