<svg width="16" height="16" viewBox="0 0 16 16" fill="none" xmlns="http://www.w3.org/2000/svg">
<path d="M11.7183 2.95532L10.385 2.25532C9.21434 1.64132 8.62901 1.33398 7.99967 1.33398C7.37034 1.33398 6.78501 1.64065 5.61434 2.25532L5.40034 2.36798L11.349 5.76732L14.0263 4.42732C13.5957 3.93932 12.901 3.57465 11.7183 2.95398M14.4983 5.30998L11.833 6.64332V8.66732C11.833 8.79993 11.7803 8.9271 11.6866 9.02087C11.5928 9.11464 11.4656 9.16732 11.333 9.16732C11.2004 9.16732 11.0732 9.11464 10.9795 9.02087C10.8857 8.9271 10.833 8.79993 10.833 8.66732V7.14332L8.49967 8.30998V14.6033C8.97834 14.484 9.52301 14.1987 10.385 13.746L11.7183 13.046C13.1523 12.2933 13.8697 11.9173 14.2683 11.2407C14.6663 10.5647 14.6663 9.72265 14.6663 8.04065V7.96265C14.6663 6.70065 14.6663 5.91132 14.4983 5.30998ZM7.49967 14.6033V8.30998L1.50101 5.30998C1.33301 5.91132 1.33301 6.70065 1.33301 7.96132V8.03932C1.33301 9.72265 1.33301 10.5647 1.73101 11.2407C2.12967 11.9173 2.84701 12.294 4.28101 13.0467L5.61434 13.746C6.47634 14.1987 7.02101 14.484 7.49967 14.6033ZM1.97301 4.42798L7.99967 7.44132L10.2737 6.30465L4.34967 2.91932L4.28101 2.95532C3.09901 3.57532 2.40367 3.93998 1.97301 4.42865" fill="#020204"/>
</svg>
