<svg width="22" height="22" viewBox="0 0 22 22" fill="none" xmlns="http://www.w3.org/2000/svg">
<path d="M6.05008 4.39372C6.07166 4.49946 6.10188 4.60736 6.13209 4.71526C6.52705 6.09423 7.65151 7.56168 9.41481 9.02697C9.61553 9.1953 9.82488 9.36362 10.0429 9.52979C10.2328 9.67222 10.427 9.81896 10.6278 9.96139C10.7486 10.0499 10.8738 10.1384 10.999 10.2247C11.1263 10.1362 11.2515 10.0477 11.3724 9.96139C11.5731 9.81681 11.7673 9.67222 11.9573 9.52763C12.1752 9.36147 12.3846 9.19314 12.5853 9.02697C14.3486 7.56168 15.4709 6.09423 15.868 4.71526C15.8982 4.6052 15.9285 4.4973 15.9522 4.39156C15.9932 4.21244 16.0213 4.04196 16.0407 3.87579C16.0601 3.71394 16.0666 3.55641 16.0623 3.4075C16.0493 2.6263 15.7493 1.98322 15.1536 1.4394C14.7479 1.05743 14.1371 0.703513 13.4249 0.440235C12.6479 0.148903 11.8342 0 11.0011 0C10.168 0 9.35222 0.148903 8.57956 0.438077C7.86086 0.703513 7.25007 1.05743 6.85295 1.43076L6.84864 1.43508V1.4394C6.25295 1.98322 5.95296 2.6263 5.94001 3.40966C5.93569 3.55857 5.94001 3.71394 5.95943 3.87579C5.97885 4.04196 6.00907 4.2146 6.05008 4.39372Z" fill="#0A042B"/>
<path d="M2.46936 13.7362C2.63339 13.7707 2.80821 13.7945 2.99166 13.8117C3.09742 13.8225 3.20749 13.829 3.31972 13.8333C4.75065 13.8808 6.49669 13.2658 8.43481 12.0422C8.65711 11.9019 8.88157 11.7552 9.10819 11.5998C9.30459 11.466 9.50099 11.3235 9.69955 11.179C9.82257 11.0905 9.94344 10.9977 10.0665 10.9049C10.0211 10.7581 9.97581 10.6136 9.93049 10.4711C7.58014 8.74256 5.89237 6.8543 5.34202 4.94446C5.25137 4.62723 5.1823 4.30569 5.14561 3.98414C4.3967 3.75539 3.69526 3.84171 2.99166 4.23879C2.5039 4.50638 1.97728 4.97899 1.50678 5.5746C0.988794 6.22416 0.598148 6.95357 0.341315 7.74556C0.0823231 8.53755 -0.0299067 9.3576 0.00678381 10.1841C0.0391578 10.9459 0.18592 11.6386 0.419012 12.1306V12.1371L0.423329 12.1414C0.760018 12.8752 1.278 13.3586 2.01829 13.611C2.16073 13.6628 2.31181 13.7038 2.46936 13.7362Z" fill="#0A042B"/>
<path d="M21.6607 7.74556C21.4017 6.95357 21.0111 6.22416 20.4952 5.57676C20.0226 4.97899 19.496 4.50422 19.019 4.24526H19.0125L19.0082 4.23879C18.3067 3.84171 17.6032 3.75539 16.8542 3.98414C16.8175 4.30569 16.7485 4.62723 16.6557 4.94446C16.1053 6.85214 14.4197 8.74256 12.0694 10.469C12.024 10.6114 11.9787 10.756 11.9355 10.9027C12.0586 10.9977 12.1816 11.0883 12.3025 11.179C15.2183 11.1941 17.6938 11.7314 19.2607 12.9529C19.5218 13.1557 19.7657 13.3737 19.9837 13.6132C20.724 13.3586 21.2398 12.8752 21.5765 12.1414C21.8139 11.6365 21.9628 10.9437 21.9931 10.1863C22.0298 9.3576 21.9175 8.53755 21.6607 7.74556Z" fill="#0A042B"/>
<path d="M19.388 14.1772C19.2758 14.0542 19.1506 13.9312 19.0124 13.8125C18.9304 13.7413 18.8463 13.6701 18.7556 13.5989C17.6268 12.7206 15.8527 12.1918 13.5628 12.0408C13.3017 12.0235 13.034 12.0127 12.7578 12.0063C12.5225 11.9998 12.2808 11.9955 12.0348 11.9998C11.8859 11.9976 11.7326 11.9998 11.5794 12.0041C11.5276 12.1508 11.4779 12.2976 11.4326 12.44C12.3175 15.2174 12.57 17.7379 11.8923 19.6025C11.7823 19.9089 11.6484 20.211 11.4887 20.4916C11.9592 21.1174 12.5787 21.4627 13.3815 21.5555C13.934 21.6267 14.6376 21.5512 15.3693 21.3483C16.1679 21.126 16.9146 20.7656 17.588 20.2758C18.2614 19.7859 18.8333 19.1881 19.2909 18.4997C19.7139 17.8631 20.0009 17.2179 20.1024 16.6827V16.6784V16.6719C20.2621 15.8821 20.1261 15.1872 19.6793 14.5441C19.593 14.4189 19.4937 14.2981 19.3858 14.1772H19.388Z" fill="#0A042B"/>
<path d="M10.7853 13.1288C10.7206 12.9001 10.6493 12.6692 10.5673 12.434C10.5242 12.2937 10.4745 12.1491 10.4227 12.0045C10.2673 12.0002 10.1141 11.998 9.96301 11.998C7.59324 13.6986 5.27742 14.7171 3.29398 14.6524C2.96592 14.6416 2.63786 14.6071 2.3206 14.5423C1.87168 15.1833 1.73571 15.8782 1.89542 16.6701C1.99902 17.2183 2.28822 17.8635 2.70909 18.4958C3.16664 19.1864 3.73858 19.7842 4.41196 20.2762C5.08534 20.7639 5.83209 21.1243 6.62849 21.3444C7.36446 21.5516 8.0659 21.625 8.60762 21.5559H8.6141L8.61842 21.5537C9.41913 21.4609 10.0407 21.1157 10.5112 20.4898C10.6062 20.369 10.6903 20.2395 10.768 20.0992C10.8522 19.9546 10.9299 19.7993 11.0011 19.6309C11.0421 19.5338 11.0832 19.4281 11.122 19.3223C11.6098 17.9757 11.5644 16.1285 11.0011 13.9079C10.9386 13.6532 10.8652 13.3921 10.7853 13.1288Z" fill="#0A042B"/>
</svg>
