<svg width="18" height="19" viewBox="0 0 18 19" fill="none" xmlns="http://www.w3.org/2000/svg">
<path d="M16.5 9.07175V14C16.5 14.3978 16.342 14.7794 16.0607 15.0607C15.7794 15.342 15.3978 15.5 15 15.5H5.25C4.85218 15.5 4.47064 15.342 4.18934 15.0607C3.90804 14.7794 3.75 14.3978 3.75 14V12.875M16.5 9.07175V8C16.5 7.60218 16.342 7.22064 16.0607 6.93934C15.7794 6.65804 15.3978 6.5 15 6.5H14.25M16.5 9.07175H14.25" stroke="#37CBED" stroke-linecap="round" stroke-linejoin="round"/>
<path d="M14.25 6.5V11.375C14.25 11.7728 14.092 12.1544 13.8107 12.4357C13.5294 12.717 13.1478 12.875 12.75 12.875H3C2.60218 12.875 2.22064 12.717 1.93934 12.4357C1.65804 12.1544 1.5 11.7728 1.5 11.375V5.375C1.5 4.97718 1.65804 4.59564 1.93934 4.31434C2.22064 4.03304 2.60218 3.875 3 3.875H12.75C13.1478 3.875 13.5294 4.03304 13.8107 4.31434C14.092 4.59564 14.25 4.97718 14.25 5.375V6.5ZM14.25 6.5H4.125" stroke="#37CBED" stroke-linecap="round" stroke-linejoin="round"/>
</svg>
