<svg width="32" height="32" viewBox="0 0 32 32" fill="none" xmlns="http://www.w3.org/2000/svg">
<rect width="32" height="32" rx="16" fill="url(#paint0_linear_2175_4468)"/>
<path d="M22.6663 12.666H19.333V11.666H21.2663C20.533 11.0216 19.7163 10.5271 18.8163 10.1827C17.9163 9.83824 16.9775 9.66602 15.9997 9.66602C15.0219 9.66602 14.083 9.83824 13.183 10.1827C12.283 10.5271 11.4663 11.0216 10.733 11.666H12.6663V12.666H9.33301V9.33268H10.333V10.6827C11.133 10.0271 12.0163 9.52713 12.983 9.18268C13.9497 8.83824 14.9552 8.66602 15.9997 8.66602C17.0441 8.66602 18.0497 8.83824 19.0163 9.18268C19.983 9.52713 20.8663 10.0271 21.6663 10.6827V9.33268H22.6663V12.666ZM15.883 22.666C15.6163 22.666 15.3608 22.616 15.1163 22.516C14.8719 22.416 14.6552 22.2716 14.4663 22.0827L11.0663 18.666L11.5663 18.1493C11.7441 17.9716 11.9526 17.8522 12.1917 17.7913C12.4308 17.7305 12.6668 17.7331 12.8997 17.7993L13.9997 18.116V12.666C13.9997 12.4771 14.0637 12.3189 14.1917 12.1913C14.3197 12.0638 14.4779 11.9998 14.6663 11.9993C14.8548 11.9989 15.0132 12.0629 15.1417 12.1913C15.2701 12.3198 15.3339 12.478 15.333 12.666V17.3327H15.9997V15.3327C15.9997 15.1438 16.0637 14.9856 16.1917 14.858C16.3197 14.7305 16.4779 14.6665 16.6663 14.666C16.8548 14.6656 17.0132 14.7296 17.1417 14.858C17.2701 14.9865 17.3339 15.1447 17.333 15.3327V17.3327H17.9997V15.9993C17.9997 15.8105 18.0637 15.6522 18.1917 15.5247C18.3197 15.3971 18.4779 15.3331 18.6663 15.3327C18.8548 15.3322 19.0132 15.3962 19.1417 15.5247C19.2701 15.6531 19.3339 15.8113 19.333 15.9993V17.3327H19.9997C19.9997 17.1438 20.0637 16.9856 20.1917 16.858C20.3197 16.7305 20.4779 16.6665 20.6663 16.666C20.8548 16.6656 21.0132 16.7296 21.1417 16.858C21.2701 16.9865 21.3339 17.1447 21.333 17.3327V19.9993C21.333 20.7327 21.0719 21.3605 20.5497 21.8827C20.0275 22.4049 19.3997 22.666 18.6663 22.666H15.883Z" fill="#EBFCFF"/>
<defs>
<linearGradient id="paint0_linear_2175_4468" x1="11.2787" y1="16" x2="85.4763" y2="24.9561" gradientUnits="userSpaceOnUse">
<stop stop-color="#09ADEA"/>
<stop offset="0.990459" stop-color="#2939EE"/>
</linearGradient>
</defs>
</svg>
