<svg width="12" height="13" viewBox="0 0 12 13" fill="none" xmlns="http://www.w3.org/2000/svg">
<path d="M11 3.91016H8.5V3.16016H9.95C9.4 2.67682 8.7875 2.30599 8.1125 2.04766C7.4375 1.78932 6.73333 1.66016 6 1.66016C5.26667 1.66016 4.5625 1.78932 3.8875 2.04766C3.2125 2.30599 2.6 2.67682 2.05 3.16016H3.5V3.91016H1V1.41016H1.75V2.42266C2.35 1.93099 3.0125 1.55599 3.7375 1.29766C4.4625 1.03932 5.21667 0.910156 6 0.910156C6.78333 0.910156 7.5375 1.03932 8.2625 1.29766C8.9875 1.55599 9.65 1.93099 10.25 2.42266V1.41016H11V3.91016ZM5.9125 11.4102C5.7125 11.4102 5.52083 11.3727 5.3375 11.2977C5.15417 11.2227 4.99167 11.1143 4.85 10.9727L2.3 8.41016L2.675 8.02266C2.80833 7.88932 2.96467 7.79982 3.144 7.75416C3.32333 7.70849 3.50033 7.71049 3.675 7.76016L4.5 7.99766V3.91016C4.5 3.76849 4.548 3.64982 4.644 3.55416C4.74 3.45849 4.85867 3.41049 5 3.41016C5.14133 3.40982 5.26017 3.45782 5.3565 3.55416C5.45283 3.65049 5.50067 3.76916 5.5 3.91016V7.41016H6V5.91016C6 5.76849 6.048 5.64982 6.144 5.55416C6.24 5.45849 6.35867 5.41049 6.5 5.41016C6.64133 5.40982 6.76017 5.45782 6.8565 5.55416C6.95283 5.65049 7.00067 5.76916 7 5.91016V7.41016H7.5V6.41016C7.5 6.26849 7.548 6.14982 7.644 6.05416C7.74 5.95849 7.85867 5.91049 8 5.91016C8.14133 5.90982 8.26017 5.95782 8.3565 6.05416C8.45283 6.15049 8.50067 6.26916 8.5 6.41016V7.41016H9C9 7.26849 9.048 7.14982 9.144 7.05416C9.24 6.95849 9.35867 6.91049 9.5 6.91016C9.64133 6.90982 9.76017 6.95782 9.8565 7.05416C9.95283 7.15049 10.0007 7.26916 10 7.41016V9.41016C10 9.96016 9.80417 10.431 9.4125 10.8227C9.02083 11.2143 8.55 11.4102 8 11.4102H5.9125Z" fill="url(#paint0_linear_2705_13201)"/>
<defs>
<linearGradient id="paint0_linear_2705_13201" x1="4.71875" y1="6.16016" x2="16.9574" y2="6.80629" gradientUnits="userSpaceOnUse">
<stop stop-color="#09ADEA"/>
<stop offset="1" stop-color="#2939EE"/>
</linearGradient>
</defs>
</svg>
