<svg width="16" height="16" viewBox="0 0 16 16" fill="none" xmlns="http://www.w3.org/2000/svg">
<path d="M8 14.0003C7.53333 14.0003 7.13889 13.8392 6.81667 13.517C6.49444 13.1948 6.33333 12.8003 6.33333 12.3337C6.33333 11.867 6.49444 11.4725 6.81667 11.1503C7.13889 10.8281 7.53333 10.667 8 10.667C8.46667 10.667 8.86111 10.8281 9.18333 11.1503C9.50556 11.4725 9.66667 11.867 9.66667 12.3337C9.66667 12.8003 9.50556 13.1948 9.18333 13.517C8.86111 13.8392 8.46667 14.0003 8 14.0003ZM4.23333 10.2337L2.83333 8.80033C3.48889 8.14477 4.25844 7.62544 5.142 7.24233C6.02556 6.85921 6.97822 6.66744 8 6.66699C9.02178 6.66655 9.97467 6.86099 10.8587 7.25033C11.7427 7.63966 12.512 8.16744 13.1667 8.83366L11.7667 10.2337C11.2778 9.74477 10.7111 9.36144 10.0667 9.08366C9.42222 8.80588 8.73333 8.66699 8 8.66699C7.26667 8.66699 6.57778 8.80588 5.93333 9.08366C5.28889 9.36144 4.72222 9.74477 4.23333 10.2337ZM1.4 7.40033L0 6.00033C1.02222 4.95588 2.21667 4.13921 3.58333 3.55033C4.95 2.96144 6.42222 2.66699 8 2.66699C9.57778 2.66699 11.05 2.96144 12.4167 3.55033C13.7833 4.13921 14.9778 4.95588 16 6.00033L14.6 7.40033C13.7444 6.54477 12.7529 5.87544 11.6253 5.39233C10.4978 4.90921 9.28933 4.66744 8 4.66699C6.71067 4.66655 5.50244 4.90833 4.37533 5.39233C3.24822 5.87633 2.25644 6.54566 1.4 7.40033Z" fill="black"/>
</svg>
